<svg id="svg" xmlns="http://www.w3.org/2000/svg" xmlns:xlink="http://www.w3.org/1999/xlink" width="400" height="400" viewBox="0, 0, 400,400"><g id="svgg"><path id="path0" d="M174.974 1.081 C 172.151 1.364,171.546 1.534,171.815 1.971 C 172.018 2.298,171.239 2.499,168.417 2.847 C 166.620 3.068,166.095 2.699,167.250 2.027 C 167.806 1.703,167.806 1.686,167.250 1.677 C 166.929 1.671,166.667 1.817,166.667 2.000 C 166.667 2.183,166.283 2.333,165.814 2.333 C 165.332 2.333,165.050 2.189,165.166 2.001 C 165.303 1.780,165.078 1.780,164.497 2.001 C 164.017 2.184,163.221 2.333,162.728 2.334 C 162.236 2.334,161.032 2.638,160.054 3.010 C 159.075 3.382,157.300 3.731,156.109 3.786 C 154.822 3.844,153.838 4.055,153.684 4.306 C 153.541 4.537,152.391 4.927,151.128 5.171 C 149.866 5.415,148.233 5.879,147.500 6.201 C 146.767 6.523,145.888 6.747,145.547 6.699 C 145.206 6.652,145.008 6.742,145.106 6.901 C 145.204 7.060,145.033 7.206,144.726 7.225 C 143.687 7.288,135.297 9.329,134.649 9.676 C 134.296 9.865,133.293 10.077,132.420 10.146 C 129.678 10.365,122.581 13.009,121.290 14.294 L 120.167 15.411 121.233 14.872 C 123.134 13.912,123.225 14.334,121.333 15.333 C 119.439 16.334,118.333 16.580,118.333 16.000 C 118.333 14.824,103.472 22.159,101.833 24.143 C 101.357 24.720,97.809 26.517,95.750 27.223 C 94.787 27.553,94.000 27.932,94.000 28.066 C 94.000 28.199,93.114 28.910,92.031 29.646 C 90.947 30.382,90.010 31.107,89.947 31.258 C 89.885 31.410,88.858 32.083,87.667 32.754 C 85.169 34.161,82.796 36.023,81.495 37.594 C 80.997 38.195,79.895 39.144,79.045 39.702 C 78.195 40.260,77.854 40.405,78.287 40.025 C 78.720 39.645,78.959 39.333,78.818 39.333 C 78.561 39.333,76.737 40.637,75.500 41.705 C 75.133 42.021,73.333 43.515,71.500 45.023 C 69.667 46.532,66.592 49.311,64.667 51.198 C 51.000 64.598,46.071 69.620,43.471 72.797 C 41.837 74.794,39.485 77.542,38.246 78.905 C 37.006 80.268,36.066 81.504,36.159 81.654 C 36.251 81.803,36.096 82.115,35.814 82.349 C 35.533 82.582,35.387 82.993,35.490 83.261 C 35.593 83.529,35.125 84.593,34.451 85.624 C 32.934 87.946,33.042 87.820,32.786 87.564 C 32.668 87.446,32.761 87.121,32.993 86.841 C 33.282 86.494,33.297 86.333,33.041 86.333 C 32.835 86.333,32.667 86.469,32.667 86.635 C 32.667 86.801,32.126 87.584,31.465 88.376 C 30.804 89.167,29.819 90.753,29.277 91.900 C 28.736 93.047,27.771 94.743,27.133 95.670 C 26.496 96.597,26.067 97.505,26.180 97.688 C 26.380 98.011,24.262 102.493,23.592 103.167 C 23.409 103.350,23.576 102.868,23.963 102.097 C 24.350 101.325,24.660 100.575,24.651 100.430 C 24.642 100.285,24.207 100.992,23.685 102.000 C 23.162 103.008,22.793 103.931,22.866 104.050 C 22.938 104.169,22.006 106.344,20.794 108.883 C 19.582 111.422,18.302 114.162,17.950 114.972 C 17.598 115.781,17.099 116.606,16.841 116.805 C 15.909 117.524,12.886 125.074,12.859 126.750 C 12.845 127.621,12.712 128.333,12.564 128.333 C 12.415 128.333,12.388 128.485,12.502 128.670 C 12.818 129.181,12.349 130.333,11.825 130.333 C 11.021 130.333,8.059 141.050,6.811 148.477 C 6.536 150.115,6.037 152.074,5.702 152.832 C 5.366 153.590,4.981 155.100,4.846 156.188 C 4.710 157.276,4.296 159.517,3.926 161.167 C 3.555 162.817,3.129 164.767,2.978 165.500 C 2.827 166.233,2.794 168.371,2.903 170.250 C 3.063 173.006,2.996 173.908,2.555 174.917 C 0.312 180.044,-0.661 207.164,0.997 218.333 C 1.364 220.808,1.665 222.880,1.666 222.936 C 1.666 222.993,1.491 222.931,1.277 222.798 C 1.002 222.629,0.964 222.746,1.147 223.195 C 1.290 223.546,1.488 224.508,1.587 225.333 C 1.686 226.158,1.988 227.172,2.258 227.587 C 2.543 228.025,2.776 229.281,2.815 230.587 C 2.852 231.822,3.074 233.506,3.309 234.329 C 3.768 235.941,4.027 239.583,3.638 238.953 C 3.322 238.443,3.683 244.359,4.006 245.000 C 4.145 245.275,4.446 246.400,4.675 247.500 C 4.987 249.004,5.150 249.335,5.332 248.833 C 5.508 248.350,5.639 248.672,5.808 250.000 C 6.303 253.883,7.130 257.926,7.882 260.142 C 8.785 262.797,8.781 262.777,8.316 262.489 C 8.123 262.370,8.179 262.774,8.438 263.386 C 8.698 263.999,9.583 266.075,10.404 268.000 C 11.226 269.925,12.246 272.550,12.672 273.833 C 13.098 275.117,13.799 277.151,14.229 278.355 C 15.369 281.545,15.675 282.711,15.312 282.487 C 14.888 282.225,14.920 282.792,15.387 283.818 C 15.600 284.285,15.937 284.667,16.137 284.668 C 16.337 284.669,16.785 285.381,17.134 286.251 C 17.807 287.932,18.566 289.000,19.087 289.000 C 19.262 289.000,19.318 288.775,19.213 288.500 C 19.107 288.225,19.080 288.000,19.153 288.000 C 19.452 288.000,20.305 290.127,21.490 293.824 C 23.114 298.892,28.840 308.741,32.737 313.168 C 33.463 313.992,33.887 314.667,33.679 314.667 C 33.161 314.667,37.830 321.384,39.583 323.163 C 40.363 323.953,41.000 324.768,41.000 324.973 C 41.000 326.279,45.795 332.680,49.884 336.833 C 53.690 340.699,69.023 355.469,71.167 357.334 C 80.358 365.332,104.105 380.643,110.500 382.694 C 111.783 383.105,112.983 383.630,113.167 383.860 C 113.350 384.090,115.075 384.759,117.000 385.345 C 118.925 385.932,121.832 387.080,123.459 387.897 C 128.962 390.659,134.455 392.554,137.742 392.824 C 139.101 392.936,145.804 394.607,147.202 395.184 C 147.772 395.418,149.722 395.781,151.536 395.990 C 155.208 396.412,157.001 396.882,157.500 397.554 C 158.291 398.621,170.333 399.665,170.333 398.667 C 170.333 398.483,169.846 398.313,169.250 398.288 C 168.368 398.251,168.322 398.217,169.000 398.107 C 169.458 398.033,170.133 397.841,170.500 397.680 C 171.834 397.095,173.366 397.006,174.102 397.472 C 174.728 397.867,176.454 398.144,184.667 399.168 C 187.533 399.525,202.868 400.034,206.333 399.886 C 208.442 399.797,210.657 399.716,211.255 399.706 C 211.854 399.696,214.029 399.459,216.089 399.179 C 218.148 398.899,220.733 398.598,221.833 398.511 C 222.933 398.424,224.583 398.118,225.500 397.832 C 226.417 397.547,228.292 397.226,229.667 397.120 C 231.042 397.014,232.952 396.709,233.912 396.441 C 234.872 396.174,235.777 396.029,235.922 396.118 C 236.254 396.324,239.723 395.572,241.541 394.901 C 243.011 394.357,249.652 393.208,249.898 393.454 C 249.979 393.535,250.943 393.237,252.039 392.791 C 253.136 392.346,254.156 392.057,254.307 392.150 C 254.457 392.243,255.462 392.083,256.540 391.794 C 259.005 391.134,262.290 390.711,262.410 391.040 C 262.459 391.177,264.600 390.397,267.167 389.305 C 269.733 388.214,272.808 387.020,274.000 386.652 C 275.192 386.283,277.196 385.592,278.454 385.114 C 279.937 384.552,280.816 384.369,280.955 384.594 C 281.207 385.001,283.333 384.220,283.333 383.721 C 283.333 383.551,284.121 383.088,285.083 382.694 C 287.125 381.859,288.597 380.819,288.241 380.463 C 288.104 380.326,287.431 380.468,286.746 380.780 L 285.500 381.345 286.407 380.584 C 287.137 379.972,295.443 377.000,296.424 377.000 C 297.437 377.000,310.931 368.385,313.319 366.214 C 313.953 365.638,314.272 365.429,314.028 365.750 C 312.909 367.224,319.437 362.736,322.562 359.883 C 323.536 358.994,324.333 358.363,324.333 358.481 C 324.333 359.658,331.975 353.681,337.521 348.167 C 358.566 327.242,363.617 320.937,376.501 299.500 C 380.551 292.762,381.056 291.796,381.941 289.101 C 382.313 287.967,382.917 286.618,383.284 286.103 C 383.650 285.588,384.256 284.022,384.630 282.622 C 385.004 281.222,386.075 278.447,387.010 276.455 C 390.386 269.266,392.048 264.625,391.967 262.621 C 391.929 261.701,393.900 253.632,394.520 252.167 C 394.753 251.617,395.116 249.707,395.327 247.922 C 395.774 244.141,396.099 242.853,396.782 242.171 C 397.841 241.112,399.006 229.333,398.051 229.333 C 397.840 229.333,397.646 229.746,397.621 230.250 C 397.577 231.150,397.573 231.152,397.423 230.333 C 397.338 229.875,397.153 229.350,397.012 229.167 C 396.870 228.983,396.632 228.233,396.483 227.500 L 396.212 226.167 395.975 227.667 C 395.845 228.492,395.487 229.836,395.180 230.654 C 394.873 231.472,394.479 233.272,394.305 234.654 C 394.130 236.036,393.754 238.442,393.468 240.000 C 393.182 241.558,392.871 243.877,392.777 245.153 C 392.683 246.429,392.395 247.775,392.137 248.144 C 391.600 248.910,391.494 250.479,392.000 250.167 C 392.526 249.842,392.392 250.579,391.667 252.000 C 391.300 252.719,391.000 253.583,391.000 253.920 C 391.000 254.257,390.874 254.676,390.721 254.850 C 390.567 255.024,390.177 256.442,389.854 258.000 C 389.002 262.109,387.375 267.179,386.490 268.483 C 386.068 269.104,385.792 269.681,385.875 269.764 C 386.115 270.004,384.977 274.667,384.679 274.667 C 384.531 274.667,384.068 275.529,383.650 276.583 C 382.780 278.775,381.345 281.753,381.040 282.000 C 380.926 282.092,380.497 283.165,380.087 284.385 C 378.928 287.832,375.152 295.536,373.460 297.907 C 372.621 299.083,371.796 300.544,371.628 301.154 C 370.988 303.470,368.316 308.626,368.512 307.167 C 368.673 305.964,368.542 306.118,367.182 308.735 C 366.353 310.331,365.148 312.163,364.504 312.807 C 363.860 313.451,363.333 314.116,363.333 314.284 C 363.333 315.346,358.372 321.261,357.888 320.777 C 357.546 320.434,356.307 322.516,356.469 323.161 C 356.660 323.921,354.980 326.000,354.175 326.000 C 353.683 326.000,353.343 326.402,350.365 330.500 C 348.379 333.233,338.200 344.000,337.602 344.000 C 337.142 344.000,335.259 345.370,335.452 345.563 C 335.539 345.650,335.960 345.528,336.388 345.293 C 338.055 344.377,338.516 344.733,337.229 345.942 C 336.354 346.763,335.702 346.927,336.333 346.167 C 337.202 345.120,336.128 345.728,334.714 347.083 C 333.902 347.863,333.343 348.313,333.472 348.083 C 334.322 346.572,332.201 347.897,328.000 351.502 C 326.258 352.997,323.964 354.869,322.901 355.662 C 321.738 356.530,321.037 357.281,321.140 357.550 C 321.443 358.339,316.988 361.261,313.333 362.670 C 311.654 363.318,309.574 364.791,307.717 366.648 C 305.840 368.525,303.870 369.728,304.236 368.773 C 304.485 368.124,302.819 369.024,300.619 370.727 C 299.951 371.244,299.156 371.667,298.852 371.667 C 298.070 371.667,296.355 372.595,295.072 373.713 C 294.015 374.633,293.619 374.802,292.769 374.696 C 292.551 374.669,290.601 375.541,288.436 376.634 C 279.420 381.187,273.790 383.676,273.076 383.423 C 272.843 383.341,271.343 383.801,269.743 384.446 C 264.644 386.502,251.537 389.954,246.833 390.479 L 245.167 390.665 246.250 390.165 C 247.513 389.582,247.646 389.334,246.583 389.544 C 246.171 389.626,246.808 389.315,248.000 388.852 C 249.192 388.389,250.653 387.917,251.247 387.802 C 251.841 387.687,252.245 387.460,252.144 387.297 C 252.043 387.134,252.311 387.000,252.740 387.000 C 253.168 387.000,254.610 386.477,255.943 385.838 C 257.276 385.200,258.262 384.846,258.133 385.054 C 257.775 385.634,259.616 385.082,260.764 384.264 C 261.375 383.829,261.816 383.700,261.951 383.917 C 262.237 384.374,264.667 383.413,264.667 382.843 C 264.667 382.410,267.098 381.333,268.076 381.333 C 268.380 381.333,268.825 381.061,269.064 380.728 C 269.304 380.395,273.250 378.042,277.833 375.498 C 286.734 370.560,289.893 368.633,292.417 366.606 C 296.873 363.025,297.450 362.592,296.865 363.267 C 295.604 364.722,296.951 363.956,299.074 362.011 C 300.268 360.917,301.336 360.114,301.448 360.226 C 301.620 360.398,304.437 358.007,308.499 354.238 C 309.050 353.728,310.133 352.828,310.906 352.238 C 312.415 351.089,312.653 350.667,311.793 350.667 C 311.350 350.667,311.327 350.576,311.667 350.167 C 311.895 349.892,312.295 349.667,312.555 349.667 C 313.600 349.667,318.479 345.483,320.284 343.040 C 320.715 342.456,321.615 341.686,322.284 341.328 C 322.953 340.971,323.950 340.054,324.500 339.292 C 325.050 338.530,326.025 337.380,326.667 336.737 C 328.479 334.919,332.665 329.552,332.666 329.046 C 332.666 328.796,333.933 327.014,335.480 325.086 C 337.027 323.158,339.615 319.693,341.230 317.387 C 342.845 315.081,345.097 312.209,346.233 311.004 C 347.370 309.800,348.420 308.495,348.567 308.104 C 348.713 307.714,351.182 304.868,354.053 301.781 C 361.412 293.866,368.800 284.322,369.990 281.193 C 370.147 280.779,370.704 280.079,371.228 279.637 C 371.752 279.195,372.655 277.933,373.236 276.833 C 373.816 275.733,374.421 274.861,374.581 274.895 C 374.948 274.974,376.797 272.164,378.242 269.333 C 378.850 268.142,379.653 266.806,380.027 266.366 C 380.921 265.312,382.330 262.514,382.345 261.761 C 382.361 260.972,383.081 259.705,383.500 259.731 C 384.170 259.772,386.384 254.689,388.392 248.505 C 389.524 245.019,390.806 241.357,391.242 240.368 C 391.678 239.379,391.958 238.371,391.865 238.128 C 391.772 237.885,392.292 236.343,393.021 234.700 C 394.359 231.685,394.654 230.479,395.311 225.333 C 395.510 223.775,395.770 222.139,395.889 221.698 C 396.041 221.135,395.990 220.967,395.719 221.134 C 395.239 221.431,395.232 220.820,395.686 218.024 C 396.192 214.906,396.740 214.278,396.466 217.130 C 396.306 218.802,396.348 219.363,396.623 219.194 C 396.830 219.066,397.011 218.482,397.023 217.897 C 397.036 217.312,397.167 216.533,397.314 216.167 C 397.766 215.040,398.126 220.324,397.702 221.853 C 397.251 223.475,397.225 225.333,397.652 225.333 C 398.430 225.333,398.875 215.077,398.128 214.329 C 397.885 214.086,397.846 213.474,398.016 212.562 C 398.592 209.465,399.122 202.132,399.226 195.833 C 399.286 192.167,399.346 188.567,399.359 187.833 C 399.377 186.785,399.443 186.642,399.667 187.167 C 399.851 187.596,399.961 186.561,399.977 184.260 C 399.996 181.241,399.924 180.717,399.508 180.876 C 399.096 181.035,399.025 180.614,399.072 178.283 C 399.139 174.990,398.754 172.667,398.143 172.667 C 397.729 172.667,397.519 171.715,397.249 168.621 C 397.172 167.740,397.260 167.454,397.571 167.574 C 398.411 167.896,398.174 164.196,397.145 160.899 C 396.699 159.469,396.333 157.701,396.333 156.971 C 396.333 156.241,396.122 155.311,395.864 154.905 C 395.606 154.499,395.152 152.967,394.854 151.500 C 394.557 150.033,394.045 148.308,393.717 147.667 C 393.389 147.025,392.856 145.300,392.534 143.833 C 392.212 142.367,391.570 139.742,391.108 138.000 C 390.645 136.258,390.219 134.233,390.160 133.500 C 390.021 131.759,386.933 122.814,386.500 122.899 C 386.317 122.935,385.967 122.584,385.724 122.119 C 385.480 121.655,385.207 121.349,385.116 121.440 C 385.025 121.530,385.187 122.061,385.475 122.619 C 385.764 123.177,385.993 123.829,385.984 124.067 C 385.966 124.541,384.228 121.290,383.854 120.083 C 383.679 119.517,383.755 119.333,384.167 119.333 C 385.331 119.333,378.698 105.921,376.007 102.833 C 375.363 102.094,373.652 98.810,372.970 97.000 C 372.487 95.720,370.726 93.066,369.320 91.500 C 368.826 90.950,367.923 89.546,367.312 88.381 C 366.596 87.014,364.925 84.918,362.601 82.476 C 359.273 78.977,357.810 77.123,359.879 79.025 C 360.706 79.786,360.735 79.791,360.380 79.109 C 359.889 78.163,353.727 71.583,351.185 69.289 C 350.095 68.305,348.826 67.050,348.366 66.500 C 347.905 65.950,345.384 63.377,342.764 60.782 C 340.144 58.187,338.000 55.949,338.000 55.808 C 338.000 55.304,336.929 54.381,336.524 54.537 C 336.297 54.624,335.460 53.976,334.664 53.098 C 333.157 51.434,331.121 49.767,326.333 46.277 C 324.775 45.141,323.012 43.793,322.415 43.281 C 321.818 42.769,320.051 41.740,318.488 40.994 C 316.884 40.229,315.737 39.489,315.855 39.298 C 316.207 38.729,311.195 34.667,310.142 34.667 C 310.048 34.667,308.665 33.787,307.069 32.712 C 303.490 30.301,296.036 26.674,288.704 23.774 C 285.659 22.569,282.942 21.313,282.667 20.981 C 282.337 20.584,281.756 20.394,280.959 20.421 C 280.178 20.448,278.975 20.064,277.551 19.334 C 275.203 18.130,274.768 17.659,276.782 18.500 C 277.452 18.780,278.000 18.875,278.000 18.712 C 278.000 18.358,275.413 17.217,273.387 16.677 C 272.591 16.465,271.391 16.010,270.720 15.665 C 270.049 15.321,266.961 14.421,263.858 13.665 C 260.755 12.908,257.875 12.021,257.457 11.693 C 256.586 11.007,253.930 10.190,253.278 10.407 C 253.036 10.488,253.737 10.828,254.836 11.163 C 256.708 11.733,257.889 12.331,257.150 12.335 C 256.335 12.339,251.124 10.523,250.797 10.121 C 250.593 9.871,249.720 9.570,248.856 9.451 C 247.992 9.333,247.455 9.131,247.663 9.002 C 248.289 8.616,241.092 7.358,237.232 7.180 C 233.227 6.995,229.333 6.410,229.333 5.993 C 229.333 5.589,226.637 5.084,220.412 4.323 C 217.344 3.948,213.933 3.440,212.833 3.193 C 211.733 2.947,210.158 2.739,209.333 2.732 C 208.508 2.724,206.483 2.538,204.833 2.318 C 203.183 2.098,199.958 1.943,197.667 1.975 C 192.391 2.047,185.628 1.666,185.848 1.310 C 186.076 0.941,178.055 0.773,174.974 1.081 M204.250 7.617 C 205.639 7.756,206.667 7.732,206.667 7.559 C 206.667 7.393,207.223 7.364,207.917 7.495 C 208.604 7.625,210.667 7.774,212.500 7.827 C 220.334 8.052,234.905 11.798,251.880 17.949 C 253.923 18.689,255.709 19.191,255.850 19.064 C 255.991 18.937,256.003 19.014,255.876 19.236 C 255.613 19.694,257.254 20.667,258.290 20.667 C 259.348 20.667,260.124 21.050,259.654 21.341 C 259.411 21.491,261.281 22.572,264.376 24.071 C 269.963 26.777,278.458 31.540,280.370 33.039 C 281.032 33.558,281.661 33.895,281.767 33.788 C 281.874 33.682,283.235 34.645,284.793 35.929 C 286.351 37.213,287.550 38.339,287.457 38.432 C 287.364 38.525,289.231 40.078,291.606 41.884 C 296.544 45.638,302.016 50.095,301.869 50.242 C 301.332 50.779,295.833 47.148,295.833 46.257 C 295.833 46.055,295.646 45.826,295.417 45.750 C 295.188 45.674,295.000 45.776,295.000 45.977 C 295.000 46.514,292.836 45.539,290.667 44.025 C 289.658 43.321,287.633 42.128,286.167 41.374 C 284.700 40.620,283.500 39.821,283.500 39.598 C 283.500 39.375,282.975 38.860,282.333 38.452 C 281.692 38.044,280.898 37.470,280.570 37.175 C 279.890 36.566,278.944 36.147,277.500 35.818 C 276.660 35.627,276.600 35.553,277.128 35.358 C 277.876 35.082,275.930 33.723,272.333 32.011 C 271.142 31.444,269.516 30.591,268.721 30.116 C 267.426 29.342,266.467 29.089,264.569 29.021 C 264.240 29.010,263.250 28.325,262.368 27.500 C 261.486 26.675,260.585 26.000,260.366 26.000 C 260.146 26.000,259.487 25.751,258.900 25.447 C 258.313 25.143,257.383 24.781,256.833 24.642 C 255.869 24.398,250.733 22.251,248.333 21.089 C 247.692 20.778,247.017 20.504,246.833 20.481 C 246.650 20.457,246.050 20.250,245.500 20.022 C 244.950 19.794,243.787 19.435,242.917 19.224 C 242.046 19.014,241.333 18.657,241.333 18.430 C 241.333 18.204,240.471 17.779,239.417 17.487 C 235.581 16.423,231.158 14.822,230.804 14.370 C 230.525 14.015,230.293 13.993,229.804 14.277 C 229.212 14.620,229.226 14.649,230.000 14.683 C 230.458 14.703,230.649 14.794,230.423 14.885 C 230.198 14.976,229.148 14.799,228.090 14.492 C 227.032 14.184,224.817 13.652,223.167 13.309 C 221.517 12.967,217.692 12.164,214.667 11.525 C 211.387 10.832,207.655 10.279,205.422 10.154 C 203.362 10.039,201.262 9.820,200.755 9.668 L 199.833 9.391 200.667 9.303 C 202.122 9.149,195.075 8.677,188.250 8.471 C 181.966 8.282,180.273 8.494,182.417 9.203 L 183.167 9.451 182.333 9.664 C 181.860 9.786,183.139 9.967,185.296 10.085 C 187.384 10.199,189.251 10.451,189.446 10.646 C 189.659 10.859,191.395 10.991,193.817 10.977 C 196.371 10.962,197.591 10.849,197.167 10.667 C 195.959 10.148,197.993 10.282,199.548 10.824 C 200.345 11.102,202.036 11.291,203.548 11.272 C 206.978 11.227,210.608 11.644,211.733 12.212 C 212.229 12.462,213.304 12.667,214.122 12.667 C 214.941 12.667,216.321 12.971,217.189 13.343 C 218.056 13.715,219.306 14.150,219.967 14.311 C 220.627 14.471,222.344 14.906,223.783 15.278 C 225.222 15.650,226.607 15.874,226.861 15.776 C 228.174 15.273,237.442 18.113,236.749 18.807 C 236.612 18.944,236.653 19.006,236.840 18.944 C 237.027 18.883,237.777 19.084,238.507 19.391 C 239.236 19.698,241.686 20.587,243.950 21.365 C 246.214 22.144,248.282 22.996,248.545 23.260 C 248.827 23.541,249.327 23.657,249.762 23.542 C 250.395 23.373,261.223 28.221,260.911 28.533 C 260.785 28.660,256.884 27.312,256.500 27.010 C 256.122 26.712,252.877 25.589,250.740 25.016 C 249.956 24.806,249.389 24.514,249.480 24.366 C 249.809 23.833,243.809 22.239,236.131 20.821 C 233.711 20.374,231.305 19.836,230.783 19.625 C 230.260 19.414,229.158 19.208,228.333 19.166 C 227.508 19.125,225.558 18.716,224.000 18.257 C 220.862 17.334,211.085 16.661,211.541 17.400 C 211.848 17.896,206.696 17.580,205.827 17.050 C 205.288 16.721,205.580 16.687,207.417 16.862 C 209.086 17.022,209.667 16.972,209.667 16.670 C 209.667 16.438,209.443 16.348,209.149 16.461 C 208.864 16.570,207.552 16.495,206.232 16.295 C 203.324 15.854,193.715 15.904,188.770 16.387 C 184.326 16.820,177.097 16.984,178.500 16.620 C 179.109 16.461,178.653 16.430,177.333 16.540 C 176.142 16.640,173.308 16.775,171.037 16.840 C 168.737 16.906,166.751 17.116,166.554 17.313 C 166.359 17.507,165.855 17.667,165.433 17.667 C 164.993 17.667,164.667 17.868,164.667 18.140 C 164.667 18.401,164.218 18.700,163.667 18.807 C 163.117 18.913,162.198 19.091,161.625 19.202 C 160.805 19.362,160.640 19.308,160.849 18.952 C 160.995 18.704,160.789 18.786,160.391 19.135 C 159.775 19.675,159.667 19.691,159.667 19.242 C 159.667 18.286,156.309 18.864,152.410 20.492 C 151.261 20.972,150.164 21.268,149.972 21.149 C 149.780 21.031,149.081 21.036,148.418 21.160 C 147.655 21.303,147.365 21.480,147.629 21.643 C 148.108 21.940,147.242 22.324,144.177 23.175 C 143.082 23.479,141.620 24.017,140.927 24.371 C 140.234 24.724,139.667 24.932,139.667 24.832 C 139.667 24.733,139.329 24.871,138.917 25.140 C 138.504 25.409,136.466 26.090,134.388 26.654 C 132.310 27.218,130.180 27.901,129.654 28.173 C 129.129 28.445,128.258 28.667,127.719 28.667 C 126.361 28.667,116.395 32.622,117.667 32.656 C 117.942 32.663,117.679 32.966,117.083 33.330 C 115.563 34.257,115.732 34.484,117.333 33.667 C 118.067 33.293,118.667 33.108,118.667 33.257 C 118.667 33.882,115.005 35.342,114.394 34.961 C 113.535 34.424,101.396 41.179,98.833 43.620 C 97.880 44.528,95.581 45.907,93.923 46.566 C 92.536 47.117,88.581 49.987,88.083 50.804 C 87.945 51.029,86.933 51.720,85.833 52.341 C 84.733 52.962,82.458 54.826,80.777 56.485 C 79.096 58.143,77.296 59.875,76.777 60.333 L 75.833 61.167 76.640 60.251 C 78.746 57.863,76.671 59.332,73.503 62.474 C 71.547 64.413,69.813 66.000,69.649 66.000 C 69.485 66.000,69.121 66.443,68.841 66.985 C 68.153 68.315,61.797 74.581,58.500 77.179 C 57.033 78.335,55.544 79.630,55.191 80.057 C 54.582 80.794,49.011 86.866,46.702 89.308 C 46.109 89.936,45.387 90.911,45.098 91.475 C 44.137 93.351,42.629 95.349,42.319 95.158 C 41.672 94.758,40.602 95.802,38.289 99.089 C 36.969 100.965,35.273 103.175,34.519 104.000 C 33.360 105.270,26.333 116.503,26.333 117.087 C 26.333 117.195,25.134 119.732,23.668 122.725 C 22.201 125.718,21.001 128.036,21.001 127.876 C 21.000 127.716,20.765 127.780,20.479 128.018 C 20.157 128.285,20.029 128.736,20.144 129.194 C 20.262 129.667,19.958 130.648,19.309 131.886 C 18.285 133.841,17.354 135.080,17.784 133.917 C 18.381 132.304,18.371 132.196,17.705 133.000 C 16.784 134.112,16.793 133.404,17.734 130.725 C 18.273 129.190,18.532 128.783,18.688 129.225 C 18.840 129.658,19.069 129.255,19.480 127.833 C 22.339 117.941,35.551 93.159,43.069 83.589 C 43.607 82.905,43.960 82.205,43.854 82.033 C 43.747 81.861,43.887 81.494,44.164 81.217 C 44.440 80.941,44.667 80.554,44.667 80.357 C 44.667 80.161,44.892 80.000,45.167 80.000 C 45.442 80.000,45.667 79.875,45.667 79.722 C 45.667 79.569,46.727 78.331,48.023 76.972 C 49.319 75.612,50.984 73.750,51.723 72.833 C 52.462 71.917,53.690 70.492,54.451 69.667 C 55.212 68.842,56.340 67.567,56.958 66.833 C 57.576 66.100,60.014 63.526,62.374 61.112 C 64.735 58.699,66.667 56.586,66.667 56.415 C 66.667 55.985,70.307 52.567,73.500 50.001 C 74.967 48.822,76.242 47.771,76.333 47.665 C 76.425 47.559,78.000 46.367,79.833 45.016 C 81.667 43.665,83.692 42.084,84.333 41.504 C 84.975 40.924,86.400 39.921,87.500 39.275 C 91.983 36.642,95.213 34.556,96.000 33.785 C 96.458 33.336,97.958 32.482,99.333 31.887 C 100.708 31.292,103.183 30.045,104.833 29.114 C 110.807 25.745,117.556 22.590,122.917 20.660 C 124.063 20.248,125.000 19.798,125.000 19.659 C 125.000 19.383,130.089 18.080,132.092 17.844 C 132.785 17.762,136.760 16.732,140.926 15.555 C 147.016 13.835,149.480 13.305,153.500 12.850 C 156.250 12.539,159.633 12.072,161.018 11.812 C 163.277 11.388,166.056 11.163,177.987 10.437 C 180.154 10.305,181.227 10.128,180.821 9.969 C 180.177 9.717,180.177 9.713,180.833 9.680 C 182.221 9.610,180.421 8.989,178.938 9.027 C 178.147 9.046,176.900 8.929,176.167 8.765 L 174.833 8.468 176.463 8.234 C 177.360 8.105,179.985 7.982,182.297 7.959 C 184.608 7.937,188.075 7.812,190.000 7.682 C 194.818 7.356,201.352 7.326,204.250 7.617 M235.167 15.845 C 236.556 16.482,237.373 16.468,236.520 15.823 C 236.164 15.554,235.489 15.346,235.020 15.360 C 234.169 15.387,234.170 15.389,235.167 15.845 M267.917 18.506 C 270.030 19.134,272.956 20.477,271.555 20.176 C 270.370 19.922,270.658 20.509,271.868 20.812 C 277.507 22.227,300.485 33.178,305.167 36.682 C 306.083 37.368,308.183 38.680,309.833 39.598 C 311.483 40.515,313.211 41.653,313.672 42.125 C 314.133 42.597,315.258 43.457,316.172 44.036 C 318.004 45.197,324.100 49.664,328.973 53.416 C 330.699 54.746,333.308 57.033,334.770 58.500 C 336.232 59.967,337.303 60.942,337.149 60.667 C 336.161 58.890,344.784 67.861,348.269 72.234 C 349.058 73.225,349.921 74.118,350.185 74.220 C 350.450 74.322,350.667 74.595,350.667 74.829 C 350.667 75.062,351.679 76.210,352.917 77.381 C 354.154 78.551,355.409 79.882,355.705 80.338 C 356.001 80.794,357.778 83.111,359.655 85.488 C 361.531 87.864,363.397 90.492,363.800 91.328 C 364.203 92.163,365.134 93.669,365.869 94.674 C 369.484 99.614,374.552 107.876,374.397 108.578 C 374.347 108.804,375.195 110.529,376.280 112.411 C 379.967 118.805,383.880 127.009,383.448 127.441 C 383.349 127.540,383.751 128.869,384.341 130.394 C 385.962 134.580,388.516 142.604,389.501 146.606 C 391.010 152.731,391.064 152.899,391.308 152.223 C 391.654 151.261,392.920 155.740,393.160 158.780 C 393.317 160.764,393.271 161.334,392.968 161.147 C 392.673 160.965,392.638 161.152,392.831 161.867 C 392.975 162.398,393.074 163.133,393.050 163.500 C 393.026 163.867,393.311 165.484,393.683 167.095 C 394.054 168.705,394.278 170.153,394.180 170.312 C 394.082 170.471,394.237 171.741,394.525 173.134 C 394.813 174.527,394.988 175.929,394.913 176.250 C 394.839 176.571,394.666 176.083,394.529 175.167 C 394.154 172.646,393.357 170.000,392.974 170.000 C 392.215 170.000,391.598 167.584,391.822 165.492 C 391.996 163.869,391.936 163.361,391.529 163.024 C 391.248 162.791,390.920 162.052,390.800 161.383 C 390.680 160.714,390.358 159.910,390.084 159.596 C 389.796 159.266,389.681 158.777,389.811 158.438 C 390.003 157.938,390.081 157.924,390.346 158.343 C 390.618 158.772,390.657 158.771,390.660 158.333 C 390.665 157.447,389.978 155.333,389.684 155.333 C 389.527 155.333,389.238 154.872,389.041 154.308 C 388.845 153.745,388.550 153.366,388.386 153.467 C 388.091 153.650,386.667 149.790,386.667 148.807 C 386.667 148.525,386.517 148.387,386.333 148.500 C 386.146 148.616,386.000 148.351,386.000 147.894 C 386.000 147.448,385.600 146.202,385.111 145.125 C 384.622 144.048,384.196 142.680,384.164 142.086 C 384.133 141.491,383.890 140.741,383.624 140.419 C 382.796 139.416,381.847 137.125,382.477 137.647 C 383.122 138.183,383.132 137.962,382.531 136.523 C 382.273 135.906,381.823 135.268,381.531 135.104 C 381.239 134.940,380.723 134.020,380.384 133.059 C 380.046 132.098,379.470 131.033,379.105 130.693 C 378.528 130.156,377.278 127.983,372.759 119.667 C 369.825 114.268,367.461 110.461,366.018 108.812 C 363.980 106.482,361.201 102.794,362.122 103.641 C 362.605 104.086,363.000 104.355,363.000 104.240 C 363.000 103.750,361.196 101.428,360.139 100.557 C 359.509 100.038,359.083 99.469,359.191 99.294 C 359.299 99.118,358.823 98.343,358.132 97.571 C 357.441 96.799,355.817 94.976,354.521 93.520 C 349.767 88.176,349.288 87.718,349.527 88.750 C 349.792 89.896,349.354 89.920,348.316 88.815 C 347.734 88.196,347.673 88.023,348.091 88.184 C 348.435 88.316,348.667 88.247,348.667 88.013 C 348.667 87.351,346.947 85.327,346.578 85.555 C 346.387 85.673,346.325 85.617,346.441 85.430 C 346.690 85.026,343.669 81.214,342.978 81.060 C 342.219 80.891,340.404 78.994,340.192 78.149 C 340.084 77.718,339.003 76.627,337.749 75.682 C 334.284 73.069,325.424 63.357,326.115 62.928 C 326.381 62.763,326.268 62.456,325.750 61.937 C 325.075 61.260,325.000 61.246,325.000 61.795 C 325.000 62.199,324.463 61.744,323.417 60.455 C 321.637 58.263,319.990 56.617,315.183 52.228 C 313.358 50.562,311.301 48.634,310.611 47.944 C 309.921 47.254,308.638 46.318,307.761 45.864 C 306.884 45.409,305.717 44.643,305.167 44.161 C 304.617 43.679,304.354 43.380,304.583 43.496 C 304.813 43.611,305.000 43.581,305.000 43.427 C 305.000 42.717,303.727 41.508,300.902 39.536 C 299.214 38.357,297.158 36.766,296.333 36.000 C 295.128 34.880,290.364 31.814,284.548 28.416 C 284.155 28.186,281.195 26.744,277.970 25.211 C 274.745 23.679,272.012 22.179,271.897 21.879 C 271.765 21.534,271.303 21.333,270.642 21.333 C 269.649 21.333,267.115 20.252,265.567 19.167 C 264.641 18.519,265.090 18.524,266.350 19.175 C 267.592 19.818,267.656 19.196,266.417 18.524 C 265.228 17.879,265.783 17.873,267.917 18.506 M210.833 19.854 C 211.750 19.960,213.025 20.186,213.667 20.355 C 214.308 20.524,215.658 20.665,216.667 20.668 C 219.470 20.677,220.980 20.997,220.772 21.539 C 220.643 21.875,220.898 22.000,221.709 22.000 C 223.464 22.000,230.488 23.105,230.611 23.400 C 230.672 23.547,231.280 23.667,231.961 23.667 C 232.643 23.667,233.379 23.846,233.599 24.065 C 233.818 24.284,234.560 24.486,235.249 24.513 C 235.937 24.540,237.325 24.798,238.333 25.086 C 239.342 25.374,242.459 26.249,245.260 27.029 C 248.061 27.809,250.232 28.568,250.083 28.717 C 249.935 28.865,248.773 28.623,247.501 28.179 C 246.229 27.734,244.209 27.283,243.011 27.175 C 241.813 27.068,239.655 26.813,238.215 26.610 C 236.487 26.367,235.523 26.354,235.382 26.572 C 234.932 27.266,232.587 27.441,232.802 26.766 C 232.960 26.266,232.681 26.061,231.248 25.624 L 229.500 25.091 232.000 25.219 C 238.201 25.539,228.252 23.637,219.833 22.894 C 216.900 22.635,212.213 22.478,209.417 22.545 C 205.879 22.629,204.333 22.555,204.333 22.301 C 204.333 22.069,203.723 21.978,202.666 22.051 C 201.091 22.160,200.498 21.925,201.417 21.554 C 201.646 21.462,199.958 21.372,197.667 21.355 C 195.375 21.338,192.240 21.229,190.700 21.113 C 188.520 20.948,187.956 20.992,188.154 21.313 C 188.340 21.613,188.130 21.696,187.382 21.617 C 186.730 21.549,186.199 21.706,185.928 22.049 C 185.332 22.799,180.516 23.207,180.794 22.483 C 180.920 22.155,180.742 21.991,180.240 21.970 C 177.947 21.879,175.942 22.137,174.167 22.751 C 172.901 23.190,171.402 23.433,170.083 23.414 C 168.938 23.397,168.000 23.511,168.000 23.668 C 168.000 23.824,167.137 24.125,166.083 24.336 C 165.029 24.547,163.236 24.932,162.098 25.193 C 160.960 25.454,159.685 25.677,159.265 25.690 C 158.546 25.712,158.540 25.730,159.167 25.977 C 159.710 26.192,159.587 26.278,158.500 26.441 C 153.497 27.191,148.633 28.013,147.500 28.302 C 146.767 28.488,145.717 28.629,145.167 28.614 C 143.576 28.572,132.933 31.563,134.333 31.659 C 134.608 31.677,134.323 31.914,133.700 32.185 C 133.076 32.455,132.647 32.758,132.747 32.858 C 132.846 32.958,133.487 32.805,134.171 32.520 C 135.620 31.914,135.667 31.907,135.667 32.292 C 135.667 32.865,131.047 34.120,130.526 33.688 C 129.665 32.974,125.301 34.558,117.321 38.481 C 114.963 39.641,112.951 40.507,112.850 40.406 C 112.749 40.305,112.667 40.381,112.667 40.575 C 112.667 40.770,112.479 41.006,112.250 41.101 C 112.021 41.195,111.233 41.518,110.500 41.817 L 109.167 42.362 109.977 41.717 C 111.520 40.490,118.930 36.634,121.543 35.699 C 122.986 35.183,125.667 34.124,127.500 33.345 C 129.333 32.567,132.483 31.360,134.500 30.664 C 142.747 27.817,145.183 26.894,145.512 26.492 C 146.093 25.780,148.411 24.940,150.167 24.805 C 151.083 24.735,152.283 24.591,152.833 24.485 C 153.589 24.340,153.711 24.378,153.333 24.641 C 152.915 24.933,152.945 24.991,153.520 24.995 C 153.897 24.998,154.491 24.792,154.839 24.537 C 155.187 24.282,155.646 24.141,155.858 24.222 C 156.071 24.304,157.626 23.973,159.314 23.488 C 161.002 23.002,162.458 22.680,162.550 22.772 C 162.641 22.864,163.702 22.657,164.907 22.312 C 166.112 21.968,168.164 21.619,169.466 21.538 C 170.768 21.457,174.758 20.983,178.333 20.484 C 184.468 19.628,185.086 19.599,189.333 19.961 C 195.052 20.448,196.443 20.447,196.140 19.956 C 195.969 19.680,196.917 19.636,199.703 19.791 C 201.791 19.907,204.625 20.064,206.000 20.139 C 207.375 20.214,208.088 20.204,207.583 20.116 C 206.152 19.866,206.472 19.245,207.917 19.468 C 208.604 19.574,209.917 19.748,210.833 19.854 M252.500 22.365 C 254.670 23.565,255.946 24.023,256.160 23.678 C 256.400 23.289,254.536 22.289,253.362 22.177 C 252.888 22.132,252.200 21.990,251.833 21.861 C 251.467 21.733,251.767 21.959,252.500 22.365 M195.292 25.034 C 196.963 25.065,197.045 25.097,196.052 25.332 C 194.267 25.754,193.889 26.414,195.500 26.296 C 196.233 26.242,197.658 26.370,198.667 26.580 C 201.091 27.085,212.707 27.784,213.992 27.502 C 214.589 27.371,215.000 27.416,215.000 27.614 C 215.000 28.007,216.949 28.495,217.264 28.180 C 217.383 28.061,217.260 27.824,216.990 27.654 C 216.162 27.130,217.254 27.265,219.500 27.965 C 220.600 28.308,222.625 28.695,224.000 28.824 C 228.958 29.289,235.526 30.752,235.179 31.314 C 235.088 31.461,236.247 31.689,237.755 31.821 C 239.264 31.953,240.573 32.168,240.666 32.299 C 240.890 32.620,248.362 35.128,250.667 35.656 C 254.006 36.421,261.131 38.932,263.500 40.180 C 264.783 40.855,266.283 41.474,266.833 41.555 C 267.383 41.635,269.033 42.087,270.500 42.559 C 273.315 43.464,274.586 44.167,272.740 43.798 C 272.097 43.669,271.667 43.719,271.667 43.921 C 271.667 44.106,272.079 44.334,272.583 44.427 C 274.436 44.769,277.600 46.087,278.440 46.865 C 278.915 47.306,279.477 47.667,279.688 47.667 C 280.651 47.667,284.319 49.767,285.749 51.137 C 287.267 52.592,288.630 53.268,289.259 52.879 C 289.689 52.614,292.000 54.269,292.000 54.842 C 292.000 55.122,293.377 56.020,295.250 56.962 C 297.037 57.861,299.086 59.065,299.802 59.637 C 300.519 60.209,301.644 61.006,302.302 61.409 C 302.961 61.812,304.728 63.074,306.230 64.215 C 307.731 65.355,309.269 66.454,309.647 66.656 C 310.024 66.858,310.333 67.217,310.333 67.454 C 310.333 68.104,311.831 69.376,312.365 69.179 C 312.623 69.084,313.433 69.530,314.167 70.169 C 314.927 70.832,315.213 71.232,314.833 71.099 C 313.649 70.686,314.847 71.997,320.057 76.817 C 326.562 82.835,330.463 87.501,332.891 92.167 C 333.368 93.083,334.413 94.668,335.213 95.687 C 336.012 96.707,336.667 97.661,336.667 97.806 C 336.667 98.118,340.602 106.012,341.001 106.500 C 341.742 107.407,347.001 118.423,347.525 120.167 C 347.856 121.267,348.300 122.392,348.511 122.667 C 349.246 123.622,352.000 128.939,351.991 129.385 C 351.986 129.631,351.727 129.421,351.414 128.917 C 350.919 128.118,350.080 127.570,350.393 128.250 C 350.456 128.387,351.063 129.635,351.740 131.023 C 352.418 132.410,353.074 134.210,353.199 135.023 C 353.323 135.835,353.540 136.650,353.682 136.833 C 354.534 137.936,355.912 144.023,355.133 143.244 C 355.023 143.134,354.933 142.508,354.933 141.853 C 354.933 141.176,354.617 140.195,354.201 139.581 C 353.798 138.986,352.819 137.150,352.024 135.500 C 351.229 133.850,349.013 129.822,347.100 126.548 C 345.187 123.274,343.374 120.049,343.071 119.381 C 342.768 118.713,341.653 117.008,340.594 115.592 C 339.534 114.176,338.661 112.826,338.655 112.592 C 338.642 112.099,335.461 107.601,332.333 103.652 C 331.142 102.148,329.930 100.523,329.640 100.042 C 329.351 99.561,328.301 98.522,327.307 97.734 C 326.313 96.946,324.795 95.746,323.933 95.068 C 323.027 94.353,322.360 93.552,322.350 93.165 C 322.332 92.425,312.777 82.479,309.500 79.789 C 308.400 78.886,306.721 77.424,305.768 76.541 C 303.056 74.024,299.612 71.329,298.333 70.721 C 297.692 70.416,297.017 70.004,296.833 69.805 C 296.446 69.384,292.585 66.894,290.167 65.506 C 289.250 64.980,288.350 64.374,288.167 64.160 C 287.983 63.947,287.008 63.430,286.000 63.012 C 283.615 62.024,281.333 60.689,281.333 60.281 C 281.333 60.103,280.336 59.506,279.117 58.953 C 277.898 58.401,276.682 57.730,276.416 57.463 C 275.791 56.839,273.865 55.873,272.167 55.333 C 270.514 54.807,267.564 53.335,265.952 52.232 C 265.284 51.775,263.916 51.162,262.912 50.871 C 261.908 50.579,260.918 50.136,260.711 49.887 C 260.505 49.638,259.341 49.011,258.125 48.495 C 255.974 47.581,253.788 46.000,254.674 46.000 C 255.731 46.000,254.411 45.573,249.009 44.169 C 245.835 43.344,243.072 42.534,242.869 42.369 C 241.643 41.372,231.474 38.526,229.833 38.721 L 228.833 38.840 229.833 39.407 C 231.682 40.454,229.814 40.038,225.611 38.466 C 219.732 36.267,211.727 35.029,203.000 34.969 C 192.943 34.900,189.413 34.807,189.532 34.614 C 190.303 33.369,179.407 34.083,165.936 36.161 C 161.846 36.792,157.375 37.478,156.000 37.685 C 144.941 39.353,129.486 44.159,111.471 51.532 C 110.355 51.989,108.555 52.952,107.471 53.672 C 106.387 54.392,105.257 54.985,104.960 54.991 C 104.663 54.996,103.388 55.753,102.127 56.673 C 100.865 57.593,97.358 59.606,94.333 61.147 C 91.308 62.688,87.858 64.706,86.667 65.631 C 82.313 69.014,76.819 73.175,76.279 73.500 C 75.974 73.683,74.367 75.066,72.709 76.574 C 71.051 78.081,69.311 79.410,68.843 79.527 C 68.375 79.645,67.832 79.987,67.637 80.287 C 67.319 80.778,67.301 80.775,67.464 80.250 C 67.753 79.323,67.069 79.568,65.733 80.869 C 63.534 83.012,61.433 84.655,61.196 84.418 C 61.069 84.291,61.065 84.449,61.188 84.770 C 61.355 85.205,60.764 85.984,58.855 87.844 C 57.449 89.214,56.077 90.866,55.805 91.515 C 55.534 92.165,55.082 92.784,54.800 92.892 C 54.108 93.158,49.291 99.996,49.527 100.378 C 49.631 100.545,49.021 101.653,48.174 102.841 C 47.326 104.028,46.720 105.000,46.827 105.000 C 47.099 105.000,48.964 102.856,50.232 101.087 C 50.818 100.269,51.511 99.427,51.772 99.217 C 52.033 99.006,52.889 97.870,53.674 96.693 C 54.459 95.516,55.928 93.753,56.938 92.775 C 58.613 91.152,59.175 89.948,57.758 91.018 C 57.433 91.264,57.908 90.689,58.813 89.740 C 60.300 88.182,61.548 87.474,60.220 88.941 C 59.916 89.277,59.675 89.841,59.684 90.193 C 59.700 90.775,59.750 90.763,60.237 90.066 C 60.531 89.643,61.787 88.641,63.029 87.837 C 64.271 87.034,65.433 86.102,65.613 85.767 C 66.139 84.785,69.000 82.852,69.000 83.479 C 69.000 84.422,69.341 84.161,73.426 80.083 C 74.390 79.121,75.415 78.333,75.704 78.333 C 76.395 78.333,77.645 77.005,76.968 76.989 C 76.337 76.975,77.390 76.174,79.386 75.150 C 80.240 74.712,81.945 73.500,83.174 72.457 C 85.556 70.436,91.548 66.333,92.117 66.333 C 92.305 66.333,93.318 65.658,94.368 64.833 C 95.418 64.008,96.439 63.333,96.638 63.333 C 96.836 63.333,98.349 62.583,100.000 61.667 C 101.651 60.750,103.236 60.000,103.523 60.000 C 103.810 60.000,104.522 59.637,105.106 59.194 C 106.721 57.967,116.528 53.153,119.167 52.292 C 120.450 51.873,121.705 51.329,121.956 51.083 C 122.454 50.595,126.530 48.482,127.950 47.977 L 128.833 47.663 127.917 48.359 C 126.256 49.621,126.959 49.582,129.583 48.266 C 131.004 47.554,132.842 46.882,133.667 46.773 C 134.492 46.664,135.317 46.459,135.500 46.318 C 136.923 45.220,143.592 43.878,143.143 44.779 C 143.037 44.992,143.166 44.904,143.429 44.583 C 143.929 43.973,144.518 43.765,144.175 44.320 C 144.058 44.510,144.389 44.496,144.989 44.287 C 145.545 44.093,146.000 43.741,146.000 43.504 C 146.000 42.970,148.064 42.555,149.334 42.833 C 149.950 42.969,151.410 42.687,153.542 42.020 C 155.338 41.459,157.216 41.000,157.715 41.000 C 158.215 41.000,159.029 40.846,159.525 40.657 C 161.007 40.094,169.336 38.918,171.667 38.943 L 173.833 38.967 172.833 38.421 L 171.833 37.874 172.998 37.629 C 174.298 37.356,174.734 37.533,173.990 38.033 C 173.655 38.258,174.132 38.298,175.500 38.158 C 176.771 38.028,177.338 38.067,177.055 38.264 C 176.181 38.874,177.579 38.963,183.359 38.665 C 186.516 38.503,189.498 38.450,189.985 38.547 C 190.562 38.662,191.024 38.540,191.309 38.195 C 191.890 37.496,194.546 37.501,197.728 38.209 C 201.948 39.147,203.429 39.279,205.976 38.942 C 208.558 38.601,210.826 38.806,210.490 39.350 C 210.288 39.676,212.466 39.852,214.797 39.697 C 215.589 39.645,216.198 39.781,216.363 40.048 C 216.536 40.329,217.565 40.530,219.233 40.611 C 220.663 40.680,222.058 40.925,222.333 41.156 C 222.608 41.387,224.933 41.968,227.500 42.448 C 233.814 43.629,241.364 45.510,241.650 45.973 C 241.779 46.182,242.998 46.667,244.359 47.052 C 248.563 48.241,255.865 51.232,262.494 54.479 C 265.981 56.187,269.383 57.760,270.054 57.975 C 270.725 58.190,271.364 58.600,271.475 58.887 C 271.596 59.203,271.924 59.344,272.306 59.244 C 272.702 59.140,273.330 59.437,273.989 60.039 C 274.568 60.568,275.230 61.000,275.461 61.000 C 276.592 61.000,289.356 68.901,292.196 71.359 C 292.985 72.041,294.911 73.373,296.476 74.319 C 298.041 75.264,299.512 76.292,299.744 76.602 C 299.977 76.913,301.667 78.466,303.500 80.055 C 309.152 84.951,314.783 90.353,317.690 93.667 C 319.218 95.408,321.375 97.818,322.484 99.023 C 328.010 105.023,329.606 107.033,332.069 111.093 C 335.318 116.451,335.709 117.019,337.720 119.302 C 338.594 120.294,339.228 121.235,339.129 121.393 C 339.031 121.552,339.552 122.400,340.286 123.277 C 341.021 124.155,341.732 125.309,341.866 125.843 C 342.157 127.002,343.292 129.000,343.661 129.000 C 343.805 129.000,344.008 129.262,344.113 129.583 C 344.218 129.904,344.662 130.767,345.099 131.500 C 345.536 132.233,346.164 133.658,346.494 134.667 C 346.824 135.675,347.887 138.000,348.857 139.833 C 349.826 141.667,350.725 143.767,350.853 144.500 C 351.111 145.963,351.580 147.045,352.107 147.388 C 352.468 147.623,355.167 154.923,355.722 157.167 C 355.904 157.900,356.634 160.375,357.346 162.667 C 359.061 168.186,360.333 173.058,360.333 174.101 C 360.333 174.565,360.460 174.994,360.615 175.056 C 360.770 175.117,360.994 175.917,361.113 176.833 C 361.240 177.816,361.210 178.314,361.039 178.048 C 360.821 177.706,360.690 177.693,360.504 177.994 C 360.162 178.547,360.676 192.333,361.039 192.333 C 361.608 192.333,361.345 197.498,360.639 200.187 C 360.026 202.518,359.972 203.361,360.179 207.264 C 360.375 210.933,360.337 211.677,359.958 211.597 C 359.609 211.523,359.453 212.178,359.305 214.333 C 359.197 215.892,358.935 217.691,358.721 218.331 C 358.508 218.972,358.333 220.347,358.333 221.387 C 358.333 222.427,358.196 223.328,358.029 223.389 C 357.862 223.450,357.253 225.825,356.677 228.667 C 355.080 236.548,353.703 242.073,353.193 242.648 C 352.940 242.933,352.405 244.292,352.004 245.667 C 350.765 249.913,348.114 256.316,344.874 262.884 C 343.168 266.342,341.575 269.770,341.333 270.502 C 341.092 271.234,340.676 271.994,340.408 272.191 C 340.140 272.388,339.875 272.966,339.820 273.476 C 339.764 273.986,339.406 274.693,339.026 275.048 C 338.645 275.402,338.333 275.827,338.333 275.991 C 338.333 277.288,330.080 290.661,327.584 293.408 C 326.964 294.091,325.869 295.666,325.151 296.908 C 324.433 298.150,323.085 299.992,322.156 301.000 C 321.226 302.008,319.576 303.883,318.488 305.167 C 314.707 309.626,308.055 316.524,305.143 319.005 C 303.532 320.377,301.826 321.890,301.353 322.367 C 300.879 322.844,299.143 324.394,297.496 325.811 C 295.848 327.228,294.175 328.744,293.779 329.179 C 293.382 329.615,290.576 331.494,287.543 333.356 C 284.511 335.219,281.126 337.525,280.020 338.482 C 278.915 339.439,277.803 340.222,277.549 340.222 C 277.295 340.222,276.505 340.709,275.794 341.303 C 275.082 341.898,273.675 342.719,272.667 343.129 C 271.658 343.538,270.869 344.046,270.913 344.258 C 270.960 344.488,270.771 344.558,270.441 344.431 C 270.109 344.304,269.974 344.355,270.101 344.560 C 270.301 344.884,265.460 347.352,263.667 347.839 C 263.208 347.964,261.512 348.735,259.897 349.553 C 258.281 350.371,256.031 351.335,254.897 351.694 C 253.762 352.053,252.458 352.620,252.000 352.953 C 251.542 353.287,250.117 353.904,248.833 354.326 C 247.550 354.747,245.393 355.527,244.041 356.059 C 242.689 356.591,241.515 356.959,241.433 356.877 C 241.350 356.795,239.757 357.242,237.892 357.871 C 232.953 359.537,222.954 362.239,219.600 362.815 C 218.005 363.088,216.280 363.396,215.766 363.497 C 214.924 363.664,214.906 363.650,215.583 363.352 C 215.996 363.170,216.333 362.933,216.333 362.824 C 216.333 362.716,216.164 362.732,215.957 362.860 C 215.750 362.988,213.087 363.137,210.040 363.191 C 203.832 363.301,200.667 363.585,200.667 364.033 C 200.667 364.443,202.244 364.415,202.500 364.000 C 202.613 363.817,203.635 363.682,204.770 363.700 C 206.308 363.725,206.621 363.801,206.000 364.000 C 205.279 364.231,205.257 364.277,205.833 364.344 C 206.722 364.447,201.442 365.265,198.500 365.480 C 196.393 365.635,196.304 365.618,197.583 365.306 C 198.424 365.101,199.000 364.768,199.000 364.487 C 199.000 363.991,197.134 364.070,194.766 364.668 C 194.180 364.816,193.130 364.805,192.433 364.643 C 191.737 364.482,190.342 364.355,189.333 364.362 C 186.567 364.382,188.258 364.894,192.034 365.179 C 196.719 365.533,196.636 365.897,191.809 366.168 C 189.439 366.301,186.450 366.584,185.167 366.796 C 183.367 367.093,181.575 367.084,177.333 366.757 C 174.308 366.523,170.026 366.264,167.817 366.181 C 163.343 366.012,161.075 365.724,160.806 365.290 C 160.708 365.130,160.112 365.000,159.482 365.000 C 158.852 365.000,155.223 364.529,151.418 363.953 C 147.613 363.377,144.013 362.877,143.417 362.843 C 142.822 362.808,141.997 362.620,141.584 362.424 C 141.171 362.229,139.939 361.885,138.847 361.661 C 135.382 360.951,129.718 359.020,122.500 356.088 C 118.650 354.524,114.525 352.911,113.333 352.504 C 108.501 350.852,106.187 349.897,105.690 349.349 C 105.402 349.032,104.117 348.345,102.833 347.823 C 100.725 346.964,95.888 344.330,89.485 340.552 C 86.991 339.081,77.281 331.463,73.663 328.139 C 72.473 327.046,71.056 325.930,70.514 325.659 C 69.031 324.919,65.007 320.785,60.055 314.917 C 57.619 312.029,55.434 309.667,55.200 309.667 C 54.965 309.667,54.601 309.329,54.389 308.917 C 53.258 306.712,51.827 304.590,48.667 300.427 C 46.742 297.892,44.642 295.038,44.000 294.084 C 43.358 293.131,42.669 292.347,42.467 292.342 C 42.266 292.337,41.866 291.771,41.579 291.083 C 41.292 290.396,40.648 289.158,40.148 288.333 L 39.238 286.833 41.364 288.955 C 42.534 290.122,43.493 291.277,43.495 291.522 C 43.502 292.188,48.879 298.204,50.192 299.016 C 50.820 299.404,51.333 299.955,51.333 300.240 C 51.333 301.950,58.387 308.827,66.333 314.867 C 69.175 317.027,72.775 319.862,74.333 321.168 C 82.356 327.890,91.266 333.724,104.333 340.812 C 110.764 344.300,121.332 349.334,123.667 350.021 C 125.042 350.426,126.392 350.951,126.668 351.189 C 126.944 351.427,128.294 351.876,129.668 352.187 C 132.448 352.815,135.725 353.968,140.439 355.974 C 143.929 357.459,147.763 358.596,150.068 358.830 C 151.613 358.986,158.361 360.430,160.167 360.991 C 160.717 361.162,162.894 361.525,165.006 361.798 C 169.182 362.338,169.749 362.489,171.000 363.387 C 172.391 364.386,182.641 365.183,183.167 364.333 C 183.284 364.144,182.968 363.983,182.436 363.961 C 181.742 363.933,181.672 363.881,182.167 363.762 C 182.533 363.674,182.976 363.467,183.150 363.301 C 183.324 363.135,183.849 362.998,184.317 362.995 C 185.943 362.985,186.178 362.417,184.626 362.245 C 183.824 362.156,182.545 361.845,181.785 361.555 C 181.025 361.265,179.075 360.855,177.452 360.645 C 175.828 360.434,173.525 360.116,172.333 359.938 C 171.142 359.760,169.056 359.539,167.698 359.446 C 166.217 359.345,165.041 359.088,164.758 358.805 C 164.185 358.232,162.773 358.182,162.591 358.728 C 162.464 359.108,161.697 358.881,158.667 357.568 C 158.208 357.370,156.333 356.946,154.500 356.627 C 151.069 356.029,144.948 354.306,144.235 353.736 C 144.014 353.560,142.786 353.236,141.506 353.018 C 140.226 352.799,139.024 352.492,138.834 352.334 C 138.645 352.177,136.880 351.426,134.912 350.666 C 132.944 349.906,131.333 349.165,131.333 349.019 C 131.333 348.874,130.756 348.677,130.050 348.582 C 128.122 348.324,117.121 343.848,114.825 342.389 C 113.720 341.686,112.276 341.024,111.616 340.917 C 108.849 340.468,103.336 337.862,105.862 338.197 C 106.940 338.340,106.733 338.194,104.667 337.353 C 103.292 336.794,102.006 336.335,101.809 336.335 C 101.612 336.334,100.866 335.745,100.151 335.026 C 99.436 334.307,98.732 333.793,98.585 333.884 C 98.439 333.974,97.610 333.623,96.743 333.103 C 95.876 332.582,94.738 331.938,94.214 331.670 C 93.690 331.401,92.835 330.562,92.314 329.805 C 91.371 328.435,89.684 327.411,89.032 327.814 C 88.560 328.105,86.102 326.427,85.907 325.679 C 85.819 325.344,84.342 324.240,82.624 323.227 C 79.408 321.331,75.193 318.190,69.680 313.583 C 67.352 311.638,66.480 311.078,66.347 311.445 C 66.200 311.850,65.980 311.787,65.167 311.110 C 64.198 310.304,64.193 310.285,65.000 310.495 C 65.679 310.672,65.525 310.426,64.167 309.165 C 63.250 308.314,62.688 307.713,62.917 307.829 C 63.164 307.954,63.333 307.822,63.333 307.505 C 63.333 306.798,52.951 296.619,52.431 296.816 C 51.890 297.021,48.323 292.539,46.951 289.930 C 46.198 288.499,44.795 286.793,42.531 284.557 C 40.318 282.371,39.347 281.197,39.617 281.031 C 40.067 280.752,39.407 279.735,37.377 277.583 C 36.729 276.896,36.307 276.333,36.441 276.333 C 36.869 276.333,35.610 274.213,34.284 272.703 C 33.578 271.898,33.000 270.976,33.000 270.654 C 33.000 270.333,32.071 268.592,30.936 266.786 C 28.446 262.823,25.740 257.800,26.273 258.130 C 26.525 258.285,26.590 258.188,26.461 257.851 C 26.351 257.566,26.112 257.333,25.928 257.333 C 25.745 257.333,25.682 256.984,25.789 256.558 C 25.910 256.077,25.615 254.904,25.014 253.474 C 23.741 250.442,22.307 245.457,22.536 244.859 C 22.636 244.598,22.525 244.036,22.289 243.609 C 22.053 243.183,21.898 242.646,21.945 242.417 C 21.991 242.188,21.642 240.774,21.168 239.275 C 20.695 237.776,20.388 236.337,20.488 236.079 C 20.587 235.820,20.362 234.599,19.987 233.366 C 19.612 232.133,19.258 230.158,19.199 228.978 C 19.141 227.799,18.668 223.779,18.149 220.046 C 17.256 213.622,17.226 213.028,17.594 208.975 C 17.877 205.848,17.884 204.171,17.620 202.762 C 17.197 200.505,17.483 193.987,18.158 190.500 C 18.789 187.241,18.971 185.022,18.626 184.808 C 18.465 184.709,18.333 185.229,18.333 185.964 C 18.333 187.627,17.704 190.721,17.275 191.167 C 16.882 191.575,17.201 188.159,17.866 184.833 C 18.123 183.550,18.335 181.675,18.338 180.667 C 18.344 178.191,18.600 177.329,19.254 177.580 C 19.555 177.695,19.690 177.640,19.572 177.450 C 19.181 176.817,21.075 165.213,21.690 164.472 C 21.885 164.237,22.101 163.397,22.169 162.606 C 22.406 159.865,25.949 147.669,26.453 147.857 C 26.688 147.945,27.453 146.117,28.451 143.083 C 30.301 137.457,33.040 130.277,34.267 127.833 C 34.727 126.917,35.141 125.842,35.186 125.445 C 35.231 125.048,36.381 123.023,37.740 120.945 C 39.099 118.867,40.941 115.817,41.833 114.167 C 42.724 112.517,44.249 109.854,45.220 108.250 C 47.815 103.963,46.829 104.699,43.657 109.417 C 42.146 111.662,40.763 113.595,40.583 113.710 C 40.403 113.826,39.850 114.615,39.354 115.464 C 38.858 116.313,38.365 116.921,38.259 116.815 C 38.057 116.613,37.628 117.153,35.996 119.667 C 35.460 120.492,34.642 121.617,34.178 122.167 C 33.163 123.372,36.863 115.639,38.310 113.531 C 38.825 112.781,40.018 110.629,40.960 108.750 C 41.902 106.871,42.816 105.333,42.992 105.333 C 43.168 105.333,44.133 103.946,45.138 102.250 C 46.142 100.554,47.645 98.267,48.479 97.167 C 49.312 96.067,50.218 94.700,50.491 94.129 C 51.054 92.953,54.646 88.184,57.531 84.781 C 58.595 83.526,59.582 82.350,59.724 82.167 C 61.013 80.511,63.566 77.694,64.582 76.807 C 65.270 76.205,66.958 74.644,68.333 73.336 C 69.708 72.029,71.283 70.722,71.833 70.432 C 72.383 70.143,74.548 68.550,76.645 66.894 C 78.741 65.237,81.106 63.536,81.901 63.114 C 83.617 62.201,87.000 59.693,87.000 59.334 C 87.000 59.195,87.467 58.887,88.038 58.651 C 88.609 58.414,91.394 56.671,94.227 54.777 C 97.060 52.883,99.646 51.333,99.973 51.333 C 100.557 51.333,102.823 50.235,104.486 49.145 C 104.952 48.840,105.331 48.720,105.329 48.878 C 105.327 49.037,103.454 50.367,101.168 51.833 C 91.224 58.213,86.683 61.381,84.506 63.458 C 83.226 64.679,81.993 65.608,81.767 65.521 C 81.540 65.434,81.252 65.529,81.126 65.733 C 80.978 65.973,81.051 66.008,81.333 65.833 C 81.624 65.654,81.689 65.694,81.528 65.954 C 81.396 66.169,81.141 66.254,80.962 66.143 C 80.784 66.033,80.419 66.124,80.152 66.345 C 79.885 66.567,79.667 66.632,79.667 66.491 C 79.667 66.349,79.212 66.861,78.656 67.629 C 78.099 68.397,77.312 69.158,76.906 69.321 C 76.168 69.617,67.333 78.409,67.333 78.847 C 67.333 78.974,67.633 78.999,68.000 78.903 C 68.367 78.808,68.667 78.875,68.667 79.054 C 68.667 79.232,69.948 78.206,71.514 76.772 C 73.080 75.339,74.476 74.167,74.617 74.167 C 75.109 74.167,80.710 68.848,80.346 68.726 C 80.143 68.659,79.720 68.801,79.405 69.042 C 79.091 69.283,79.197 69.072,79.641 68.573 C 80.086 68.075,80.686 67.662,80.975 67.656 C 81.614 67.644,84.065 66.176,83.833 65.944 C 83.742 65.853,84.005 65.593,84.417 65.365 C 84.829 65.138,85.467 64.490,85.833 63.924 C 86.200 63.359,87.014 62.624,87.642 62.292 C 88.270 61.960,89.340 61.144,90.021 60.480 C 90.701 59.816,91.312 59.430,91.379 59.624 C 91.445 59.817,92.175 59.387,93.000 58.668 C 94.351 57.491,99.467 54.667,100.249 54.667 C 100.422 54.667,100.832 54.370,101.160 54.008 C 101.487 53.646,101.856 53.411,101.978 53.486 C 102.100 53.562,102.975 52.912,103.921 52.042 C 107.016 49.197,113.173 45.882,113.731 46.760 C 113.906 47.035,113.991 47.045,113.995 46.790 C 113.998 46.584,114.487 46.231,115.083 46.008 C 116.355 45.530,118.516 44.555,122.051 42.862 C 123.454 42.190,124.954 41.573,125.384 41.491 C 125.815 41.409,126.317 41.139,126.500 40.892 C 127.029 40.178,127.942 39.788,133.554 37.876 C 136.458 36.886,141.948 34.848,145.754 33.347 C 151.104 31.237,153.117 30.595,154.620 30.520 C 155.689 30.467,157.852 30.083,159.426 29.667 C 162.123 28.955,164.875 28.979,162.667 29.696 C 162.133 29.869,162.432 29.898,163.500 29.777 C 164.417 29.674,165.312 29.453,165.490 29.288 C 165.684 29.107,165.351 29.058,164.656 29.165 L 163.500 29.342 164.667 28.863 C 166.119 28.267,166.435 28.232,166.145 28.702 C 165.997 28.941,166.137 29.007,166.542 28.889 C 168.851 28.215,170.333 27.929,171.445 27.943 C 172.148 27.952,173.948 27.743,175.445 27.480 C 178.683 26.910,178.989 26.898,178.333 27.370 C 177.917 27.669,177.936 27.696,178.444 27.531 C 178.780 27.422,179.201 27.333,179.380 27.333 C 179.559 27.333,179.613 27.183,179.500 27.000 C 179.387 26.817,179.520 26.667,179.797 26.667 C 180.074 26.667,180.420 26.459,180.567 26.206 C 180.938 25.565,183.522 25.163,183.851 25.695 C 184.002 25.940,183.965 26.017,183.756 25.889 C 183.360 25.644,182.461 26.572,182.783 26.894 C 182.899 27.010,184.097 26.784,185.446 26.392 C 187.454 25.809,188.390 25.718,190.616 25.889 C 192.689 26.049,193.333 25.999,193.333 25.679 C 193.333 25.360,192.462 25.289,189.690 25.384 C 187.686 25.453,186.116 25.439,186.202 25.354 C 186.445 25.111,191.390 24.730,192.458 24.872 C 192.985 24.943,194.260 25.015,195.292 25.034 M176.512 26.314 C 176.399 26.497,176.842 26.571,177.576 26.492 C 178.738 26.366,178.758 26.377,177.833 26.639 C 176.008 27.154,175.081 27.094,175.853 26.511 C 176.615 25.934,176.777 25.886,176.512 26.314 M172.833 26.560 C 172.283 26.629,170.361 26.997,168.562 27.377 C 164.831 28.165,164.143 28.042,166.727 27.049 C 168.021 26.552,169.220 26.377,171.167 26.401 C 172.633 26.419,173.383 26.490,172.833 26.560 M237.667 28.000 C 238.327 28.211,238.361 28.267,237.833 28.267 C 237.467 28.267,236.792 28.147,236.333 28.000 C 235.673 27.789,235.639 27.733,236.167 27.733 C 236.533 27.733,237.208 27.853,237.667 28.000 M244.417 29.377 C 245.287 29.573,246.000 29.921,246.000 30.150 C 246.000 30.389,246.957 30.794,248.250 31.101 L 250.500 31.636 248.667 31.473 C 246.665 31.295,240.369 29.484,239.833 28.932 C 239.462 28.550,241.713 28.768,244.417 29.377 M265.833 30.542 C 267.682 31.326,268.594 31.862,268.209 31.939 C 267.466 32.088,265.408 31.220,263.333 29.882 C 261.616 28.775,261.751 28.811,265.833 30.542 M156.833 30.976 C 156.467 31.122,155.340 31.344,154.330 31.469 C 153.321 31.593,152.271 31.847,151.997 32.034 C 151.626 32.288,151.754 32.330,152.500 32.200 C 153.050 32.104,154.206 31.929,155.068 31.810 C 155.931 31.692,156.906 31.391,157.235 31.142 C 157.910 30.630,157.805 30.587,156.833 30.976 M254.250 32.353 C 255.396 32.573,256.333 32.884,256.333 33.043 C 256.333 33.203,256.803 33.333,257.377 33.333 C 257.952 33.333,258.912 33.637,259.512 34.008 C 260.113 34.379,261.057 34.648,261.611 34.605 C 262.166 34.563,262.976 34.719,263.412 34.953 C 263.848 35.186,266.296 36.109,268.852 37.003 C 271.408 37.898,273.275 38.644,273.000 38.662 C 272.710 38.680,272.881 38.900,273.408 39.186 C 273.907 39.457,274.732 39.656,275.241 39.629 C 275.750 39.602,276.542 39.739,277.000 39.935 C 277.679 40.225,277.715 40.295,277.194 40.312 C 276.154 40.347,276.704 40.628,281.843 42.693 C 288.623 45.417,294.782 48.848,295.870 50.509 C 296.167 50.962,296.602 51.333,296.836 51.333 C 297.070 51.333,297.351 51.565,297.460 51.849 C 297.569 52.133,298.110 52.523,298.662 52.715 C 299.215 52.908,299.671 53.238,299.677 53.449 C 299.682 53.661,300.593 54.352,301.700 54.987 C 302.807 55.621,304.633 57.082,305.756 58.233 C 306.880 59.383,307.882 60.193,307.983 60.032 C 308.084 59.871,308.823 60.323,309.626 61.036 C 310.429 61.750,310.925 62.333,310.729 62.333 C 310.533 62.333,310.289 62.198,310.187 62.033 C 310.085 61.868,309.516 61.563,308.924 61.357 L 307.846 60.981 309.173 62.377 L 310.500 63.772 308.500 62.391 C 307.400 61.631,305.075 59.870,303.333 58.479 C 300.542 56.249,298.319 54.703,291.833 50.487 C 284.313 45.597,261.024 34.742,255.333 33.473 C 252.515 32.845,252.479 32.833,251.333 32.128 L 250.500 31.615 251.333 31.784 C 251.792 31.876,253.104 32.132,254.250 32.353 M272.667 33.492 C 274.683 34.234,276.333 35.111,276.333 35.442 C 276.333 35.617,276.596 35.980,276.917 36.248 C 277.475 36.716,276.347 36.104,274.740 35.067 C 274.321 34.797,273.895 34.660,273.793 34.763 C 273.519 35.036,271.109 34.123,269.978 33.318 C 268.605 32.340,268.760 31.888,270.250 32.527 C 270.938 32.821,272.025 33.256,272.667 33.492 M140.312 34.346 C 140.086 34.486,139.361 34.597,138.701 34.592 C 137.977 34.588,137.730 34.502,138.078 34.376 C 138.925 34.069,140.800 34.045,140.312 34.346 M131.657 37.013 C 130.867 37.513,130.440 37.358,131.142 36.826 C 131.496 36.559,131.866 36.422,131.966 36.522 C 132.066 36.621,131.927 36.842,131.657 37.013 M294.695 40.475 C 295.536 41.222,297.662 42.793,299.418 43.965 C 301.175 45.137,302.935 46.533,303.329 47.066 C 303.724 47.599,304.960 48.708,306.077 49.530 C 307.194 50.353,309.078 52.005,310.263 53.202 C 311.449 54.399,312.962 55.729,313.626 56.157 C 314.290 56.586,315.958 58.098,317.333 59.518 L 319.833 62.101 317.833 60.597 C 316.733 59.771,314.945 58.527,313.858 57.833 C 312.772 57.139,310.703 55.468,309.261 54.119 C 307.819 52.770,306.411 51.667,306.133 51.667 C 305.855 51.667,305.707 51.538,305.803 51.382 C 305.900 51.225,305.576 50.738,305.083 50.298 C 304.425 49.712,304.317 49.676,304.677 50.161 C 304.946 50.525,302.917 48.739,300.167 46.192 C 297.417 43.645,294.293 40.872,293.224 40.031 C 289.471 37.073,288.511 36.066,291.000 37.696 C 292.192 38.477,293.855 39.727,294.695 40.475 M118.997 41.917 C 118.993 42.304,116.445 43.667,116.194 43.417 C 116.072 43.294,116.616 42.857,117.403 42.446 C 119.072 41.572,119.001 41.596,118.997 41.917 M114.667 43.827 C 114.667 43.914,114.067 44.293,113.333 44.667 C 112.600 45.041,112.000 45.272,112.000 45.181 C 112.000 45.090,112.563 44.719,113.250 44.356 C 114.664 43.609,114.667 43.609,114.667 43.827 M322.833 66.851 C 323.200 67.265,324.773 68.687,326.329 70.010 C 327.885 71.334,329.398 72.811,329.690 73.292 C 329.983 73.773,331.688 76.109,333.480 78.482 C 335.272 80.856,336.825 83.031,336.932 83.316 C 337.228 84.107,340.352 88.333,340.640 88.333 C 340.780 88.333,341.314 89.105,341.828 90.049 C 342.341 90.992,343.974 93.580,345.455 95.799 C 346.937 98.018,348.385 100.508,348.675 101.333 C 349.197 102.822,349.963 104.400,350.942 106.000 C 351.399 106.748,351.399 106.782,350.942 106.333 C 350.661 106.058,349.333 104.108,347.991 102.000 C 342.196 92.897,338.934 88.062,337.970 87.147 C 336.628 85.873,333.324 82.027,334.084 82.624 C 335.396 83.654,334.538 82.276,332.750 80.483 C 331.696 79.426,330.867 78.446,330.908 78.307 C 330.949 78.167,329.180 76.279,326.977 74.110 C 324.775 71.941,322.520 69.466,321.968 68.609 C 321.415 67.752,320.296 66.384,319.482 65.569 C 318.667 64.754,318.000 63.912,318.000 63.698 C 318.000 63.239,321.867 65.762,322.833 66.851 M313.667 68.625 C 313.758 68.693,313.496 68.646,313.083 68.519 C 312.613 68.374,312.333 68.428,312.333 68.664 C 312.333 68.870,312.183 68.947,312.000 68.833 C 311.817 68.720,311.667 68.235,311.667 67.756 L 311.667 66.884 312.583 67.692 C 313.087 68.136,313.575 68.556,313.667 68.625 M324.118 74.979 C 324.458 75.449,323.670 74.747,322.368 73.419 C 321.065 72.091,320.000 70.823,320.000 70.602 C 320.000 70.209,322.890 73.282,324.118 74.979 M60.481 74.139 C 59.718 74.697,60.114 75.302,60.913 74.798 C 61.537 74.404,61.871 73.667,61.425 73.667 C 61.261 73.667,60.836 73.879,60.481 74.139 M350.602 93.105 C 351.646 94.354,352.503 95.564,352.506 95.794 C 352.512 96.252,357.566 102.421,358.105 102.629 C 358.302 102.705,358.344 102.508,358.205 102.148 C 357.981 101.562,357.999 101.562,358.654 102.156 C 359.030 102.496,359.268 102.843,359.183 102.928 C 358.949 103.162,360.230 105.526,361.081 106.432 C 363.389 108.886,364.667 110.426,364.667 110.754 C 364.667 110.958,365.375 112.026,366.240 113.127 C 367.105 114.229,367.630 115.017,367.406 114.878 C 366.768 114.484,366.930 115.155,367.716 116.153 C 368.109 116.653,369.824 119.829,371.526 123.210 C 373.228 126.590,374.693 129.314,374.780 129.262 C 375.369 128.911,379.362 136.490,379.560 138.333 C 379.758 140.170,381.893 146.229,383.258 148.828 C 383.549 149.381,383.951 150.553,384.153 151.433 C 384.355 152.313,384.652 153.015,384.814 152.994 C 385.266 152.934,385.765 154.376,387.296 160.167 C 388.582 165.032,389.671 168.709,392.332 177.167 C 392.879 178.906,393.362 181.358,393.481 183.000 C 393.593 184.558,393.899 187.108,394.159 188.667 C 394.420 190.225,394.624 193.025,394.613 194.889 C 394.602 196.753,394.672 198.405,394.768 198.561 C 394.864 198.717,394.804 199.587,394.634 200.496 C 394.465 201.404,394.257 204.371,394.173 207.090 C 394.089 209.808,393.920 212.193,393.798 212.391 C 393.523 212.835,392.671 217.590,392.703 218.500 C 392.717 218.898,392.857 218.715,393.049 218.047 C 393.487 216.526,393.789 216.959,393.496 218.688 C 393.348 219.565,393.163 219.930,393.000 219.666 C 392.837 219.403,392.609 219.854,392.390 220.873 C 392.179 221.858,392.163 222.543,392.351 222.610 C 392.521 222.671,392.460 222.921,392.214 223.167 C 391.968 223.413,391.668 224.638,391.547 225.890 C 391.264 228.806,390.534 231.523,390.059 231.421 C 389.676 231.338,389.605 231.558,388.162 237.333 C 387.680 239.258,387.147 240.976,386.977 241.150 C 386.806 241.324,386.667 241.841,386.667 242.299 C 386.667 242.756,386.268 243.707,385.780 244.411 C 385.196 245.254,384.908 246.085,384.936 246.845 C 384.960 247.480,384.854 248.000,384.701 248.000 C 384.548 248.000,383.638 249.904,382.680 252.230 C 381.721 254.557,380.576 256.933,380.135 257.511 C 379.694 258.090,379.331 258.924,379.328 259.365 C 379.323 260.260,378.900 261.087,378.491 261.001 C 378.344 260.970,376.856 263.619,375.184 266.889 C 371.727 273.650,369.125 278.316,367.292 281.043 C 366.598 282.075,366.099 282.988,366.183 283.072 C 366.343 283.232,363.898 286.200,361.711 288.500 C 361.014 289.233,359.344 291.258,358.000 293.000 C 354.646 297.345,354.380 297.570,356.137 294.583 C 358.285 290.929,359.333 288.789,359.333 288.058 C 359.333 287.158,361.575 282.425,362.385 281.615 C 363.639 280.361,366.443 273.716,366.012 273.019 C 365.851 272.759,366.244 271.520,367.008 269.878 C 368.784 266.063,370.381 261.159,372.181 254.000 C 373.033 250.608,374.006 247.008,374.342 246.000 C 374.678 244.992,375.124 242.819,375.333 241.172 C 375.541 239.525,375.833 238.100,375.982 238.006 C 376.130 237.911,376.493 236.333,376.789 234.500 C 378.100 226.368,378.479 222.987,378.375 220.333 C 378.190 215.619,378.256 213.009,378.656 209.167 C 378.905 206.770,378.951 203.365,378.790 199.333 C 378.654 195.942,378.514 192.417,378.479 191.500 C 378.444 190.583,378.232 188.333,378.007 186.500 C 377.783 184.667,377.479 181.592,377.332 179.667 C 377.185 177.742,376.831 175.567,376.547 174.833 C 376.255 174.082,376.023 172.436,376.015 171.064 C 376.006 169.672,375.869 168.708,375.694 168.817 C 375.525 168.921,375.309 168.592,375.213 168.086 C 374.452 164.086,373.873 161.706,373.690 161.819 C 373.570 161.893,373.452 161.702,373.427 161.394 C 373.402 161.085,373.279 160.383,373.154 159.833 C 372.517 157.039,370.936 147.977,370.857 146.667 C 370.680 143.713,368.201 135.170,367.624 135.526 C 367.464 135.625,367.333 135.576,367.333 135.417 C 367.333 135.258,367.106 134.836,366.827 134.480 C 366.459 134.009,366.502 134.325,366.986 135.647 C 367.445 136.898,367.506 137.312,367.183 136.980 C 366.206 135.977,365.240 132.309,365.837 131.872 C 366.535 131.361,365.633 128.781,361.960 120.779 C 360.515 117.632,359.333 114.869,359.333 114.640 C 359.333 114.410,359.239 114.316,359.125 114.431 C 358.827 114.728,356.819 110.419,356.525 108.851 C 356.227 107.259,354.988 104.728,353.449 102.567 C 352.823 101.687,352.004 100.187,351.629 99.233 C 350.718 96.918,349.957 95.695,347.333 92.333 C 346.116 90.775,344.839 89.050,344.494 88.500 L 343.867 87.500 344.767 88.308 C 345.851 89.282,345.924 88.980,344.949 87.551 C 343.924 86.049,348.294 90.343,350.602 93.105 M337.045 88.616 C 337.444 89.286,338.309 90.433,338.968 91.167 L 340.167 92.500 338.724 91.167 C 337.117 89.681,335.122 86.940,335.851 87.220 C 336.109 87.319,336.646 87.947,337.045 88.616 M48.185 101.519 C 47.871 101.998,47.688 102.466,47.780 102.558 C 47.872 102.650,48.204 102.332,48.519 101.852 C 48.833 101.372,49.015 100.904,48.924 100.813 C 48.832 100.721,48.500 101.039,48.185 101.519 M50.179 102.513 C 48.989 104.074,49.240 104.326,50.462 102.795 C 50.977 102.149,51.330 101.552,51.246 101.468 C 51.162 101.384,50.682 101.854,50.179 102.513 M352.315 118.156 C 353.792 120.589,355.000 122.849,355.000 123.178 C 355.000 123.507,355.578 124.839,356.284 126.138 C 358.604 130.406,363.217 141.946,364.818 147.486 C 365.134 148.578,365.754 150.185,366.196 151.058 C 366.638 151.931,367.000 153.099,367.000 153.656 C 367.000 154.212,367.130 154.667,367.290 154.667 C 367.449 154.667,367.764 155.604,367.988 156.750 C 368.212 157.896,368.512 158.983,368.654 159.167 C 369.121 159.770,369.961 162.800,370.179 164.667 C 370.296 165.675,370.620 166.754,370.897 167.064 C 371.175 167.374,371.323 167.824,371.227 168.064 C 371.114 168.348,371.043 168.296,371.026 167.917 C 371.012 167.596,370.866 167.333,370.702 167.333 C 370.538 167.333,370.760 168.721,371.195 170.417 C 372.119 174.014,372.075 173.752,371.717 173.531 C 371.561 173.435,371.637 174.513,371.885 175.928 C 372.134 177.343,372.312 178.725,372.280 179.000 C 372.249 179.275,372.339 180.211,372.482 181.080 C 372.739 182.647,373.314 182.966,373.354 181.564 C 373.386 180.471,373.837 181.713,374.117 183.667 C 374.310 185.012,374.283 185.103,373.855 184.550 C 372.934 183.359,372.741 184.294,373.404 186.744 C 373.879 188.505,374.001 189.683,373.849 191.055 C 373.734 192.094,373.749 193.369,373.883 193.889 L 374.125 194.833 374.363 194.000 C 374.508 193.491,374.603 194.205,374.607 195.833 C 374.614 198.503,374.567 198.627,374.189 196.917 C 374.078 196.412,373.823 196.000,373.621 196.000 C 373.402 196.000,373.326 196.366,373.432 196.917 C 373.529 197.421,373.408 198.658,373.163 199.667 C 372.626 201.875,371.840 214.303,372.170 215.345 C 372.310 215.784,372.250 216.179,372.023 216.319 C 371.513 216.634,371.385 218.522,371.879 218.429 C 372.153 218.378,372.169 218.701,371.937 219.596 C 371.590 220.934,370.883 224.868,370.367 228.333 C 370.073 230.315,370.056 230.187,370.177 226.833 C 370.249 224.817,370.451 222.267,370.626 221.167 C 371.528 215.490,370.764 203.066,368.873 192.667 C 368.423 190.192,367.955 186.967,367.832 185.500 C 367.479 181.262,365.234 171.006,362.960 163.239 C 362.596 161.995,362.163 159.895,361.997 158.572 C 361.831 157.249,361.311 154.442,360.840 152.333 C 360.370 150.225,359.838 147.384,359.659 146.020 C 359.480 144.656,359.206 143.456,359.049 143.353 C 358.893 143.251,358.041 140.842,357.157 138.000 C 356.273 135.158,355.351 132.351,355.108 131.761 C 354.865 131.171,354.667 130.361,354.667 129.961 C 354.667 129.560,354.299 128.468,353.849 127.533 C 353.399 126.598,352.945 125.383,352.841 124.833 C 352.654 123.847,352.657 123.845,353.050 124.667 C 353.442 125.485,353.451 125.487,353.578 124.769 C 353.650 124.367,353.480 123.617,353.201 123.102 L 352.693 122.167 352.650 123.000 C 352.620 123.560,352.406 123.196,351.995 121.888 C 351.659 120.818,351.111 119.621,350.776 119.227 C 350.362 118.741,350.337 118.642,350.697 118.920 C 350.989 119.144,351.327 119.229,351.448 119.107 C 351.719 118.837,350.702 117.667,350.197 117.667 C 349.995 117.667,349.471 116.729,349.033 115.583 C 348.594 114.438,347.732 112.491,347.118 111.258 C 346.503 110.025,346.000 108.904,346.000 108.767 C 346.000 108.324,349.556 113.611,352.315 118.156 M175.000 112.266 C 164.975 116.688,144.340 134.810,130.329 151.500 C 127.251 155.167,122.588 160.717,119.967 163.833 C 117.346 166.950,113.627 171.375,111.703 173.667 C 109.779 175.958,107.065 179.183,105.671 180.833 C 103.228 183.727,98.265 189.622,94.146 194.522 C 93.058 195.818,88.211 201.593,83.376 207.355 C 78.541 213.118,74.309 218.078,73.972 218.376 C 73.309 218.964,71.276 219.312,62.500 220.339 C 49.047 221.914,46.113 222.736,43.732 225.599 C 35.612 235.359,29.333 245.188,29.333 248.138 C 29.333 254.329,38.174 253.691,54.486 246.321 C 59.186 244.197,85.209 246.406,106.167 250.706 C 134.407 256.501,134.305 256.484,141.167 256.493 C 149.960 256.504,150.349 256.282,162.412 244.357 C 167.314 239.511,171.273 235.496,171.211 235.433 C 171.043 235.266,153.801 231.244,144.167 229.124 C 135.671 227.256,107.748 221.590,97.500 219.655 C 94.383 219.067,91.712 218.475,91.563 218.339 C 91.360 218.154,112.740 193.295,120.809 184.333 C 121.387 183.692,124.774 179.792,128.335 175.667 C 131.896 171.542,134.890 168.092,134.988 168.000 C 135.086 167.908,136.441 166.408,137.999 164.667 C 155.926 144.622,164.667 136.730,164.667 140.588 C 164.667 141.559,163.985 142.518,159.992 147.167 C 145.570 163.956,136.972 179.887,136.873 190.000 C 136.790 198.434,140.588 199.042,150.843 192.235 C 167.983 180.861,174.203 173.519,167.890 172.116 C 166.582 171.825,166.574 171.842,172.065 162.772 C 186.039 139.688,189.722 131.241,189.247 123.371 C 188.682 113.991,182.324 109.036,175.000 112.266 M311.500 112.514 C 284.612 117.556,239.644 149.824,213.274 183.000 C 187.323 215.649,181.491 249.733,198.882 267.117 C 222.200 290.427,271.179 274.091,319.624 226.847 C 327.044 219.610,328.667 216.547,328.667 209.772 C 328.667 207.223,328.617 207.216,326.140 209.433 C 301.642 231.360,266.154 252.577,247.712 256.322 C 209.383 264.105,210.036 217.097,248.847 174.667 C 275.034 146.038,294.266 131.643,311.893 127.478 C 317.190 126.227,318.543 126.565,319.378 129.352 C 321.171 135.336,308.530 152.904,290.542 169.430 L 287.584 172.148 287.821 170.421 C 288.481 165.626,284.771 166.024,278.772 171.392 C 277.272 172.735,271.797 177.605,266.606 182.216 C 257.478 190.322,255.924 191.858,253.876 194.794 C 248.975 201.820,249.866 209.198,256.000 212.387 C 271.333 220.359,322.635 176.297,334.852 144.663 C 342.805 124.071,331.664 108.733,311.500 112.514 M31.799 116.583 C 31.500 117.271,30.733 119.108,30.095 120.667 C 29.457 122.225,28.820 123.650,28.680 123.833 C 28.540 124.017,27.565 126.792,26.513 130.000 C 25.462 133.208,24.364 136.019,24.075 136.247 C 23.747 136.504,23.521 137.271,23.475 138.278 C 23.435 139.189,23.088 140.464,22.682 141.198 C 22.285 141.914,22.040 142.237,22.137 141.917 C 22.233 141.596,22.180 141.333,22.017 141.333 C 21.654 141.333,20.796 143.601,20.320 145.820 C 20.125 146.729,19.842 147.629,19.690 147.820 C 19.371 148.222,18.482 151.818,18.163 154.000 C 17.821 156.342,17.268 158.131,16.755 158.554 C 16.496 158.768,16.058 159.810,15.781 160.871 C 15.504 161.932,15.044 162.972,14.757 163.181 C 14.450 163.406,14.119 164.424,13.949 165.669 C 13.791 166.828,13.450 168.198,13.193 168.714 C 12.936 169.230,12.799 169.935,12.890 170.280 C 13.050 170.894,11.963 176.324,10.677 181.333 C 10.181 183.263,8.503 191.443,8.299 192.919 C 8.280 193.055,8.074 192.295,7.841 191.229 C 7.431 189.352,7.656 177.273,8.135 175.500 C 8.234 175.133,8.851 172.658,9.506 170.000 C 10.789 164.788,13.118 157.418,15.667 150.500 C 16.545 148.117,17.432 145.065,17.639 143.719 C 18.012 141.293,19.046 138.679,19.506 139.000 C 19.637 139.092,20.037 138.417,20.395 137.500 C 22.270 132.688,31.525 115.333,32.215 115.333 C 32.285 115.333,32.098 115.896,31.799 116.583 M35.298 123.083 C 35.082 123.496,34.627 124.231,34.286 124.718 C 33.945 125.205,33.667 125.922,33.667 126.312 C 33.667 127.778,31.818 131.000,30.977 131.000 C 30.845 131.000,31.438 129.313,32.296 127.250 C 33.154 125.188,34.001 123.517,34.178 123.539 C 34.355 123.560,34.696 123.297,34.936 122.955 C 35.540 122.093,35.773 122.175,35.298 123.083 M30.158 134.218 C 29.690 135.277,29.168 136.229,29.000 136.333 C 28.585 136.590,27.209 139.801,26.678 141.750 C 26.441 142.621,26.122 143.333,25.970 143.333 C 25.818 143.333,25.513 143.934,25.293 144.669 C 25.073 145.403,24.832 145.943,24.758 145.869 C 24.452 145.564,25.514 142.562,27.483 138.167 C 28.632 135.600,29.778 133.018,30.029 132.428 C 30.367 131.636,30.554 131.478,30.748 131.824 C 30.905 132.104,30.668 133.064,30.158 134.218 M24.154 147.636 C 24.310 148.864,23.743 150.753,23.301 150.480 C 23.135 150.378,23.000 150.478,23.000 150.703 C 23.000 150.927,22.902 151.013,22.783 150.894 C 22.663 150.774,22.831 149.693,23.157 148.490 C 23.796 146.130,23.947 146.000,24.154 147.636 M25.727 151.616 C 25.485 152.413,25.368 153.146,25.468 153.245 C 25.745 153.523,26.376 151.632,26.265 150.855 C 26.198 150.383,26.028 150.623,25.727 151.616 M13.738 184.000 C 13.649 186.292,13.450 188.328,13.296 188.525 C 12.922 189.002,12.170 201.458,12.281 205.333 C 12.374 208.620,13.416 222.003,13.824 225.167 C 13.925 225.946,13.773 225.774,13.139 224.392 C 12.691 223.416,12.411 222.477,12.517 222.306 C 12.763 221.907,12.362 220.610,12.051 220.802 C 11.923 220.881,11.851 220.346,11.892 219.612 C 11.933 218.878,11.449 216.259,10.817 213.791 C 9.863 210.070,9.667 208.706,9.667 205.799 C 9.667 203.547,9.547 202.368,9.333 202.500 C 8.885 202.777,8.912 201.924,9.387 200.772 C 9.600 200.256,9.818 198.333,9.872 196.500 C 9.999 192.151,10.337 188.927,10.714 188.456 C 10.880 188.248,11.154 187.123,11.323 185.956 C 12.508 177.745,14.030 176.512,13.738 184.000 M361.563 181.583 C 361.479 181.904,361.411 181.642,361.411 181.000 C 361.411 180.358,361.479 180.096,361.563 180.417 C 361.647 180.737,361.647 181.262,361.563 181.583 M361.902 184.413 C 361.823 184.827,361.754 184.567,361.751 183.833 C 361.747 183.100,361.812 182.761,361.896 183.079 C 361.979 183.398,361.982 183.998,361.902 184.413 M366.562 207.833 C 367.242 215.328,367.298 223.154,366.680 224.309 C 366.440 224.757,366.218 227.201,366.123 230.444 C 366.037 233.408,365.812 236.433,365.623 237.167 C 365.435 237.900,365.063 239.925,364.798 241.667 C 364.532 243.408,363.934 247.270,363.470 250.249 C 363.006 253.227,362.702 255.788,362.796 255.939 C 362.889 256.091,362.760 256.611,362.509 257.095 C 362.258 257.579,361.875 258.830,361.658 259.875 C 361.441 260.920,360.604 263.056,359.798 264.622 C 358.993 266.188,358.333 267.718,358.333 268.022 C 358.333 268.769,356.344 275.000,356.106 275.000 C 356.002 275.000,356.003 274.568,356.109 274.039 C 356.530 271.934,355.839 272.833,354.978 275.511 C 354.475 277.074,353.675 278.863,353.199 279.488 C 352.723 280.112,352.333 280.786,352.333 280.987 C 352.333 281.783,349.887 285.957,348.698 287.190 C 347.113 288.834,346.462 290.001,346.959 290.308 C 347.406 290.584,345.951 292.824,344.991 293.338 C 344.626 293.534,343.719 294.904,342.975 296.383 C 341.698 298.923,339.421 302.336,334.482 309.116 C 333.300 310.738,332.333 311.949,332.333 311.808 C 332.333 311.666,331.955 311.905,331.494 312.339 C 331.032 312.773,330.710 313.287,330.778 313.481 C 330.874 313.751,329.093 316.667,328.833 316.667 C 328.397 316.667,329.330 314.820,331.188 312.000 C 337.164 302.934,348.402 281.816,350.358 275.979 C 350.929 274.275,351.590 272.570,351.826 272.190 C 352.063 271.811,352.495 270.412,352.786 269.081 C 353.077 267.751,354.449 263.803,355.835 260.308 C 358.349 253.966,359.145 251.316,359.483 248.167 C 359.641 246.694,360.298 243.673,361.367 239.500 C 361.712 238.152,362.105 235.727,362.656 231.544 C 362.855 230.029,363.183 229.015,363.625 228.544 C 364.032 228.111,364.429 226.988,364.644 225.667 C 365.090 222.915,365.087 215.216,364.640 216.167 C 364.431 216.610,364.396 215.997,364.534 214.333 C 364.944 209.384,365.162 203.066,364.917 203.218 C 364.779 203.303,364.667 203.148,364.667 202.873 C 364.667 202.598,364.817 202.280,365.000 202.167 C 365.183 202.053,365.343 201.482,365.356 200.897 C 365.412 198.233,365.994 201.578,366.562 207.833 M10.611 227.172 C 10.976 228.636,11.381 230.508,11.511 231.333 C 11.641 232.158,12.104 233.541,12.540 234.406 C 12.976 235.270,13.333 236.354,13.333 236.815 C 13.333 237.275,13.708 238.648,14.167 239.865 C 15.015 242.119,15.278 244.211,14.667 243.833 C 14.095 243.480,14.274 243.898,16.421 247.921 C 17.569 250.073,18.936 252.808,19.459 254.000 C 19.981 255.192,20.915 257.292,21.535 258.667 C 22.154 260.042,23.264 262.713,24.002 264.603 C 24.740 266.494,25.792 268.927,26.339 270.011 C 26.886 271.094,27.333 272.295,27.333 272.679 C 27.333 273.063,27.475 273.642,27.649 273.966 C 27.822 274.290,28.353 275.589,28.829 276.853 L 29.693 279.150 28.720 278.218 C 27.625 277.169,25.516 273.538,26.439 274.291 C 27.288 274.983,27.186 274.727,24.628 269.767 C 19.913 260.625,13.504 244.309,12.869 239.833 C 12.765 239.100,12.217 237.150,11.650 235.500 C 11.084 233.850,10.486 231.600,10.322 230.500 C 10.157 229.400,9.874 227.825,9.693 227.000 C 8.765 222.787,9.552 222.935,10.611 227.172 M370.701 244.478 C 370.510 244.857,370.312 245.692,370.260 246.333 C 370.203 247.042,370.006 247.468,369.756 247.419 C 369.530 247.374,369.276 247.674,369.191 248.085 C 369.107 248.497,368.883 249.433,368.695 250.167 L 368.352 251.500 368.520 249.833 C 368.810 246.945,370.809 240.871,370.940 242.478 C 370.999 243.199,370.891 244.099,370.701 244.478 M367.648 254.851 C 367.265 256.308,366.817 258.135,366.653 258.912 C 366.489 259.688,366.121 260.681,365.835 261.118 C 365.548 261.555,365.246 262.420,365.163 263.040 C 365.020 264.116,363.715 267.801,363.682 267.222 C 363.651 266.668,365.062 261.447,365.815 259.333 C 366.239 258.142,366.697 256.492,366.833 255.667 C 367.092 254.098,368.096 251.455,368.254 251.928 C 368.304 252.079,368.031 253.394,367.648 254.851 M18.745 266.611 C 18.650 266.858,18.967 267.427,19.450 267.874 C 20.371 268.729,21.084 269.936,21.492 271.333 C 21.729 272.143,21.720 272.147,21.212 271.500 L 20.688 270.833 20.683 271.500 C 20.681 271.867,21.102 272.917,21.619 273.833 C 22.612 275.594,23.458 277.182,24.281 278.833 C 24.555 279.383,26.100 281.678,27.713 283.934 C 29.326 286.189,31.125 288.934,31.712 290.034 C 32.298 291.134,33.202 292.336,33.722 292.706 C 34.250 293.082,34.667 293.690,34.667 294.085 C 34.667 294.473,34.978 295.121,35.358 295.526 C 35.738 295.930,36.083 296.500,36.126 296.792 C 36.262 297.714,40.249 302.495,42.696 304.669 C 44.728 306.476,46.275 308.267,48.333 311.199 C 50.833 314.759,53.291 317.675,56.101 320.417 C 58.956 323.201,60.459 325.120,58.060 322.917 C 57.325 322.242,57.278 322.233,57.593 322.833 C 57.988 323.585,64.894 330.546,67.018 332.333 C 67.781 332.975,70.009 335.075,71.969 337.000 C 73.930 338.925,76.530 341.325,77.748 342.333 C 78.965 343.342,79.970 344.406,79.981 344.698 C 80.005 345.355,81.333 346.643,81.333 346.009 C 81.333 345.773,81.971 346.126,82.750 346.794 C 87.258 350.654,96.768 357.230,99.469 358.354 C 100.834 358.922,101.466 359.376,101.530 359.836 C 101.647 360.677,102.675 361.452,106.080 363.268 C 107.574 364.065,109.557 365.222,110.487 365.839 C 112.796 367.372,122.707 371.535,129.055 373.639 C 131.926 374.591,134.357 375.581,134.456 375.840 C 134.576 376.152,135.127 376.300,136.101 376.280 C 137.037 376.261,138.309 376.584,139.623 377.174 C 141.659 378.088,142.287 378.679,140.500 378.000 C 139.991 377.806,139.506 377.716,139.423 377.799 C 139.142 378.080,141.154 378.921,143.035 379.309 C 144.062 379.521,145.691 379.993,146.655 380.360 C 147.619 380.726,150.229 381.306,152.454 381.649 C 157.297 382.396,158.274 382.626,159.224 383.241 C 159.622 383.499,160.822 383.775,161.891 383.856 L 163.833 384.002 161.500 383.372 C 160.217 383.026,159.392 382.726,159.667 382.704 C 160.420 382.645,164.687 383.674,165.884 384.202 C 166.461 384.458,167.736 384.686,168.717 384.711 C 170.304 384.750,170.372 384.778,169.333 384.973 C 167.274 385.358,171.087 385.706,178.956 385.852 C 183.546 385.937,186.240 386.117,186.530 386.359 C 187.273 386.975,203.568 387.427,209.833 387.005 C 215.025 386.655,221.145 386.125,223.167 385.850 C 224.166 385.714,224.166 385.714,223.000 386.248 C 222.358 386.541,221.158 386.873,220.333 386.984 C 219.322 387.120,218.865 387.332,218.931 387.634 C 218.999 387.949,218.774 388.035,218.177 387.920 C 217.710 387.831,216.316 388.040,215.080 388.385 C 208.734 390.155,196.711 392.043,195.081 391.526 C 194.759 391.424,192.847 391.611,190.832 391.942 C 184.577 392.968,165.998 392.138,157.956 390.473 C 156.605 390.194,154.750 389.880,153.833 389.775 C 152.917 389.671,150.873 389.161,149.292 388.642 C 147.711 388.123,145.175 387.542,143.656 387.352 C 141.160 387.039,139.813 386.683,141.028 386.657 C 142.069 386.634,140.466 386.083,138.713 385.860 C 137.730 385.736,136.083 385.184,135.052 384.634 C 133.773 383.951,132.911 383.695,132.339 383.827 C 131.702 383.974,131.621 383.939,132.000 383.682 C 132.468 383.365,131.570 383.128,130.562 383.301 C 130.412 383.327,128.312 382.382,125.895 381.202 C 123.478 380.021,120.563 378.723,119.417 378.316 C 118.271 377.910,117.333 377.454,117.333 377.304 C 117.333 377.153,116.806 376.931,116.162 376.810 C 115.518 376.690,114.880 376.403,114.745 376.174 C 114.444 375.661,112.547 374.667,111.871 374.667 C 111.312 374.667,101.682 369.385,101.167 368.796 C 100.983 368.586,99.108 367.398,97.000 366.155 C 92.597 363.560,86.863 359.897,83.549 357.562 C 81.327 355.997,79.416 354.993,80.750 356.093 C 81.631 356.818,81.449 357.091,80.500 356.469 C 80.042 356.169,79.667 355.716,79.667 355.462 C 79.667 355.198,79.327 355.000,78.874 355.000 C 78.438 355.000,77.905 354.787,77.688 354.526 C 77.363 354.135,77.429 354.084,78.064 354.234 C 78.753 354.397,78.729 354.334,77.833 353.625 C 77.283 353.189,75.741 351.796,74.407 350.528 C 73.072 349.260,71.506 347.873,70.927 347.446 C 70.348 347.019,69.790 346.553,69.687 346.412 C 69.584 346.270,68.150 344.975,66.500 343.534 C 64.850 342.094,61.689 339.134,59.475 336.958 C 57.261 334.781,55.300 333.000,55.117 333.000 C 54.342 333.000,47.606 325.215,43.155 319.175 C 42.078 317.713,40.726 315.988,40.151 315.342 C 39.576 314.696,38.578 313.267,37.934 312.167 C 35.048 307.239,33.242 304.450,32.540 303.833 C 32.123 303.467,31.442 302.342,31.026 301.333 C 30.610 300.325,29.176 297.475,27.839 295.000 C 23.993 287.883,22.369 284.509,20.338 279.417 C 19.297 276.804,18.369 274.742,18.278 274.833 C 18.186 274.925,18.092 274.812,18.068 274.583 C 18.044 274.354,17.719 273.042,17.345 271.667 C 16.971 270.292,16.601 268.534,16.522 267.761 C 16.442 266.988,15.681 263.988,14.829 261.094 C 13.977 258.201,13.214 255.533,13.133 255.167 C 13.052 254.800,14.320 257.124,15.951 260.330 C 17.583 263.537,18.840 266.363,18.745 266.611 M352.883 257.833 C 352.666 258.750,352.311 259.816,352.092 260.202 C 351.874 260.588,351.241 262.148,350.685 263.670 C 350.130 265.192,349.470 266.751,349.218 267.135 C 348.967 267.519,348.500 268.733,348.181 269.833 C 347.180 273.284,343.388 282.393,342.221 284.151 C 341.607 285.076,340.994 286.426,340.858 287.150 C 340.605 288.503,338.379 294.333,338.117 294.333 C 338.036 294.333,338.068 293.808,338.189 293.167 C 338.332 292.402,338.280 292.000,338.037 292.000 C 337.833 292.000,337.667 292.267,337.667 292.593 C 337.667 293.629,335.754 297.787,334.691 299.061 C 334.128 299.736,333.667 300.416,333.667 300.572 C 333.667 301.550,331.074 305.508,329.573 306.821 C 328.165 308.053,327.835 308.546,327.791 309.483 C 327.729 310.802,326.586 312.585,325.544 312.987 C 325.125 313.149,324.027 314.677,322.867 316.714 C 321.785 318.613,320.632 320.467,320.304 320.833 C 319.976 321.200,318.125 323.478,316.190 325.896 C 314.256 328.315,311.622 331.370,310.337 332.686 C 309.052 334.003,308.000 335.212,308.000 335.373 C 308.000 335.535,307.761 335.667,307.469 335.667 C 307.177 335.667,305.714 336.809,304.219 338.205 C 301.201 341.023,299.299 342.359,298.121 342.489 C 297.691 342.536,296.721 342.983,295.967 343.482 C 295.212 343.982,294.198 344.462,293.714 344.550 C 292.875 344.701,287.348 346.823,285.116 347.850 C 284.539 348.116,283.984 348.333,283.883 348.333 C 283.783 348.333,283.336 348.671,282.890 349.083 C 281.816 350.076,275.088 352.706,273.826 352.626 C 272.767 352.560,265.613 354.399,263.667 355.238 C 260.977 356.397,259.431 356.425,260.764 355.291 C 261.449 354.709,261.453 354.678,260.833 354.851 C 260.467 354.953,261.142 354.571,262.333 354.001 C 267.206 351.674,268.328 351.081,271.929 348.927 C 273.999 347.689,277.149 345.894,278.929 344.938 C 280.710 343.982,283.292 342.370,284.667 341.357 C 286.042 340.344,287.340 339.490,287.551 339.459 C 288.167 339.367,291.872 336.786,295.833 333.686 C 297.850 332.108,299.911 330.556,300.413 330.237 C 300.915 329.918,302.165 328.458,303.191 326.994 C 305.084 324.292,306.072 323.339,306.991 323.327 C 307.582 323.319,317.043 314.115,319.493 311.165 C 320.406 310.066,322.056 308.190,323.160 306.997 C 326.128 303.787,328.516 300.488,333.050 293.333 C 334.386 291.225,335.566 289.425,335.671 289.333 C 335.776 289.242,336.503 287.817,337.286 286.167 C 338.069 284.517,339.066 282.792,339.500 282.333 C 339.935 281.875,340.588 280.802,340.953 279.950 C 341.317 279.097,342.068 277.774,342.622 277.009 C 343.176 276.244,343.883 274.842,344.194 273.893 C 344.873 271.819,346.271 268.986,347.508 267.177 C 348.006 266.449,348.636 265.102,348.909 264.184 C 349.181 263.266,349.669 262.178,349.993 261.766 C 350.317 261.355,350.925 260.151,351.345 259.092 C 352.615 255.884,353.517 255.146,352.883 257.833 M368.000 268.500 C 367.780 269.166,367.675 269.786,367.767 269.878 C 367.859 269.970,368.113 269.500,368.333 268.833 C 368.553 268.167,368.658 267.547,368.566 267.455 C 368.475 267.364,368.220 267.834,368.000 268.500 M347.338 297.155 C 346.393 299.640,339.037 312.344,337.863 313.517 C 337.654 313.727,336.890 314.676,336.165 315.626 C 334.051 318.398,319.501 330.627,321.057 328.324 C 321.363 327.871,321.767 327.535,321.955 327.577 C 322.829 327.775,329.649 320.536,333.500 315.326 C 335.700 312.349,339.082 307.795,341.015 305.206 C 342.948 302.618,345.166 299.563,345.944 298.417 C 347.459 296.185,347.837 295.843,347.338 297.155 M332.116 313.800 C 331.356 314.844,331.096 314.883,331.165 313.941 C 331.194 313.542,331.507 313.111,331.859 312.983 C 332.765 312.654,332.821 312.832,332.116 313.800 M326.167 326.000 C 326.053 326.183,326.225 326.333,326.547 326.333 C 327.469 326.333,326.649 326.899,325.333 327.170 L 324.167 327.411 324.975 326.539 C 325.756 325.696,326.587 325.320,326.167 326.000 M325.594 328.419 C 324.126 331.004,322.667 332.438,314.855 338.974 C 310.533 342.589,309.667 343.411,309.667 343.891 C 309.667 344.108,309.254 344.496,308.750 344.754 C 306.469 345.924,305.076 346.853,301.256 349.753 C 299.007 351.460,296.016 353.649,294.610 354.618 C 293.204 355.587,291.971 356.594,291.871 356.856 C 291.770 357.119,291.447 357.333,291.154 357.333 C 290.860 357.333,289.993 357.758,289.227 358.277 C 286.827 359.901,286.777 359.830,288.833 357.720 C 290.776 355.727,291.259 355.311,290.833 356.000 C 290.720 356.183,290.768 356.333,290.940 356.333 C 291.362 356.333,292.035 355.493,291.830 355.219 C 291.740 355.099,291.762 355.070,291.878 355.156 C 292.280 355.452,299.333 348.984,299.333 348.319 C 299.333 348.169,300.046 347.701,300.917 347.279 C 301.940 346.783,304.026 344.977,306.813 342.172 C 309.186 339.786,311.231 337.833,311.359 337.833 C 311.487 337.833,312.117 337.320,312.760 336.692 C 313.402 336.064,314.158 335.516,314.439 335.475 C 315.027 335.388,316.636 334.308,321.955 330.429 C 326.136 327.381,326.206 327.342,325.594 328.419 M88.833 346.838 C 89.567 347.499,88.929 347.119,87.417 345.993 C 85.904 344.867,84.667 343.876,84.667 343.790 C 84.667 343.542,87.377 345.524,88.833 346.838 M290.817 347.274 C 287.178 350.423,275.329 357.309,268.333 360.340 C 263.839 362.288,252.983 366.330,252.231 366.337 C 252.012 366.338,251.008 366.732,250.000 367.211 C 248.992 367.689,247.646 368.145,247.010 368.223 C 246.374 368.301,245.753 368.527,245.631 368.724 C 245.509 368.922,245.044 369.123,244.597 369.172 C 244.151 369.222,242.091 369.809,240.021 370.479 C 234.930 372.124,228.672 373.536,223.799 374.138 C 221.579 374.412,219.104 374.876,218.299 375.168 C 214.893 376.403,195.041 376.888,182.833 376.034 C 179.167 375.777,175.117 375.521,173.833 375.465 C 172.550 375.408,170.675 375.146,169.667 374.881 C 168.658 374.616,166.333 374.002,164.500 373.516 C 162.667 373.031,159.892 372.544,158.333 372.433 C 156.775 372.323,155.403 372.085,155.285 371.904 C 155.167 371.723,154.042 371.478,152.785 371.359 C 151.480 371.236,150.118 370.889,149.610 370.551 C 149.121 370.225,147.981 369.897,147.077 369.822 C 145.540 369.694,142.380 368.675,138.500 367.057 C 137.583 366.674,135.518 365.962,133.911 365.473 C 132.304 364.984,130.892 364.428,130.773 364.236 C 130.634 364.011,130.784 363.974,131.195 364.133 C 131.546 364.268,134.080 364.900,136.826 365.536 C 139.572 366.172,142.647 366.935,143.660 367.232 C 146.346 368.019,149.504 368.668,152.215 368.990 C 153.525 369.145,154.875 369.416,155.215 369.591 C 156.405 370.202,158.898 370.426,167.167 370.663 C 171.960 370.801,176.066 371.073,176.833 371.303 C 181.210 372.619,195.731 371.932,207.000 369.877 C 209.475 369.425,212.625 368.960,214.000 368.843 C 217.431 368.551,224.717 367.176,229.333 365.950 C 238.737 363.452,242.440 362.367,242.636 362.049 C 243.082 361.328,244.758 361.004,246.976 361.210 C 248.510 361.353,249.315 361.299,249.473 361.044 C 249.601 360.836,250.110 360.665,250.603 360.662 C 251.909 360.655,253.020 360.303,252.810 359.962 C 252.709 359.800,252.974 359.658,253.397 359.648 C 254.736 359.616,264.052 357.163,263.798 356.909 C 263.665 356.776,264.027 356.667,264.604 356.667 C 265.180 356.667,266.636 356.296,267.839 355.843 C 269.043 355.390,269.937 355.165,269.827 355.343 C 269.497 355.877,270.429 355.710,271.760 354.996 C 273.387 354.125,279.549 352.397,280.824 352.455 C 281.540 352.487,281.849 352.330,281.937 351.890 C 282.055 351.303,282.022 351.302,281.113 351.865 C 280.338 352.345,280.257 352.354,280.667 351.915 C 280.942 351.621,282.442 350.839,284.000 350.179 C 285.558 349.519,287.733 348.543,288.833 348.010 C 290.981 346.968,291.311 346.846,290.817 347.274 M275.333 354.405 C 274.669 354.695,274.614 354.796,275.064 354.905 C 275.374 354.980,276.049 354.813,276.564 354.534 C 277.707 353.914,276.702 353.809,275.333 354.405 M258.861 355.724 C 258.265 356.070,258.260 356.122,258.792 356.511 C 259.286 356.872,259.129 356.979,257.597 357.326 C 256.627 357.545,255.533 357.794,255.167 357.878 C 254.562 358.018,254.554 357.998,255.083 357.666 C 255.404 357.465,255.667 357.109,255.667 356.875 C 255.667 356.642,256.379 356.213,257.250 355.924 C 259.149 355.292,259.730 355.220,258.861 355.724 M106.349 358.196 C 109.794 360.183,109.720 360.335,106.167 358.572 C 104.609 357.799,103.334 357.054,103.334 356.917 C 103.333 356.497,103.602 356.612,106.349 358.196 M283.312 357.917 C 281.895 359.540,280.917 360.270,281.222 359.477 C 281.529 358.677,280.525 359.265,278.474 361.085 C 277.571 361.886,276.317 362.750,275.686 363.004 C 275.054 363.259,273.812 364.112,272.924 364.900 C 272.037 365.689,271.031 366.333,270.689 366.333 C 270.346 366.333,268.364 367.407,266.283 368.719 C 262.086 371.366,256.435 374.138,256.266 373.632 C 256.207 373.453,255.038 373.768,253.670 374.332 C 249.184 376.182,236.065 379.653,233.500 379.668 C 232.767 379.672,229.092 380.200,225.333 380.840 C 221.575 381.481,216.420 382.155,213.878 382.338 C 211.336 382.522,207.811 382.848,206.045 383.062 C 194.486 384.467,175.435 382.660,158.040 378.510 C 155.221 377.838,151.846 377.214,150.540 377.125 C 147.620 376.925,145.126 376.334,145.701 375.979 C 145.960 375.819,145.563 375.584,144.641 375.350 C 140.774 374.370,129.964 370.476,125.333 368.393 C 118.833 365.471,113.389 362.827,112.422 362.123 C 110.487 360.715,110.419 360.616,111.500 360.778 C 112.991 361.001,117.188 362.854,117.967 363.633 C 119.427 365.093,125.865 367.860,126.979 367.507 C 127.575 367.317,130.333 368.430,130.333 368.860 C 130.333 368.959,130.160 368.932,129.948 368.802 C 129.719 368.660,129.654 368.709,129.786 368.924 C 130.048 369.347,132.301 370.143,132.545 369.899 C 132.637 369.807,133.964 370.168,135.493 370.702 C 140.093 372.306,154.258 376.016,158.000 376.597 C 159.925 376.896,161.585 377.261,161.689 377.409 C 162.354 378.348,178.491 380.195,181.851 379.716 C 185.265 379.229,186.433 379.233,186.934 379.734 C 187.643 380.443,207.819 380.257,215.090 379.475 C 217.228 379.245,225.000 377.689,228.444 376.802 C 229.513 376.526,230.863 376.246,231.444 376.179 C 232.025 376.112,233.820 375.594,235.433 375.028 C 237.046 374.463,238.771 373.997,239.266 373.993 C 239.761 373.989,240.842 373.677,241.667 373.301 C 242.492 372.924,243.820 372.553,244.619 372.476 C 245.419 372.399,247.369 371.755,248.953 371.045 C 250.537 370.335,252.958 369.492,254.333 369.172 C 255.708 368.852,257.673 368.159,258.700 367.633 C 259.726 367.107,260.640 366.752,260.732 366.843 C 260.823 366.934,262.008 366.572,263.365 366.039 C 266.509 364.803,268.042 364.502,267.786 365.170 C 267.684 365.435,270.069 364.230,273.085 362.492 C 276.102 360.755,278.779 359.332,279.035 359.329 C 279.291 359.327,280.550 358.734,281.833 358.010 C 283.117 357.287,284.220 356.689,284.285 356.681 C 284.349 356.673,283.912 357.229,283.312 357.917 M257.500 359.508 C 257.317 359.576,256.529 359.795,255.750 359.995 C 253.960 360.455,253.818 361.171,255.583 360.840 C 256.270 360.711,256.907 360.483,257.000 360.334 C 257.092 360.184,257.692 359.912,258.334 359.728 C 259.274 359.458,259.339 359.393,258.667 359.390 C 258.208 359.388,257.683 359.441,257.500 359.508 M287.000 364.162 C 287.000 364.345,285.335 365.413,282.833 366.837 C 280.351 368.250,281.274 367.470,284.242 365.646 C 287.141 363.865,287.000 363.941,287.000 364.162 M281.000 367.789 C 281.000 367.856,280.438 368.291,279.750 368.755 C 279.063 369.218,277.887 370.176,277.137 370.882 C 275.322 372.593,272.905 373.970,273.237 373.104 C 273.451 372.546,273.396 372.549,272.484 373.157 C 266.952 376.840,244.064 386.280,239.213 386.880 C 238.505 386.967,236.405 387.563,234.546 388.203 C 232.687 388.844,230.192 389.500,229.000 389.662 C 227.808 389.823,226.192 390.185,225.407 390.466 C 224.623 390.747,223.408 391.046,222.708 391.131 C 222.008 391.215,220.850 391.372,220.135 391.480 L 218.833 391.675 220.167 391.214 C 220.900 390.960,222.175 390.457,223.000 390.097 C 223.825 389.737,226.150 389.100,228.167 388.680 C 230.183 388.261,232.391 387.636,233.074 387.290 C 233.756 386.945,234.942 386.584,235.710 386.488 C 236.478 386.391,238.031 385.942,239.162 385.489 C 241.257 384.651,243.210 384.391,242.833 385.000 C 242.494 385.549,242.764 385.431,247.531 382.948 C 252.150 380.541,253.022 380.150,263.007 376.004 C 266.036 374.746,269.463 373.180,270.622 372.525 C 271.782 371.870,272.817 371.333,272.922 371.333 C 273.028 371.333,273.414 371.071,273.781 370.750 C 274.148 370.429,274.338 370.354,274.204 370.583 C 273.818 371.244,274.297 371.071,277.667 369.333 C 281.093 367.567,281.000 367.610,281.000 367.789 M242.429 390.873 C 242.744 391.188,241.853 391.941,240.874 392.186 C 239.802 392.455,239.757 392.143,240.750 391.315 C 241.530 390.664,242.076 390.520,242.429 390.873 M217.950 391.629 C 218.444 391.942,218.373 391.962,213.833 392.804 C 212.367 393.076,210.792 393.291,210.333 393.282 L 209.500 393.267 210.333 393.000 C 210.792 392.853,211.767 392.707,212.500 392.674 C 213.233 392.642,214.583 392.338,215.500 392.000 C 217.508 391.259,217.394 391.276,217.950 391.629 M238.454 392.500 C 238.348 392.775,238.035 393.000,237.757 393.000 C 237.346 393.000,237.329 392.907,237.667 392.500 C 237.895 392.225,238.209 392.000,238.364 392.000 C 238.519 392.000,238.559 392.225,238.454 392.500 M233.667 393.291 C 233.667 393.451,233.080 393.675,232.362 393.790 C 231.645 393.905,230.783 394.098,230.446 394.219 C 230.087 394.348,229.947 394.314,230.107 394.136 C 230.773 393.400,233.667 392.712,233.667 393.291 " stroke="none" fill="#fff" fill-rule="evenodd"></path></g></svg>